# Blender v2.76 (sub 0) OBJ File: ''
# www.blender.org
mtllib OBJ_REP_Plateia_Bancos.mtl
o Box4255
v -1.777075 6.031116 8.160570
v -1.777074 6.031116 10.019999
v -1.777075 -4.417450 10.019999
v -1.777076 -4.417450 8.160569
v -22.460070 5.354116 12.205662
v -22.849663 5.354116 9.963008
v -22.849663 -4.837244 9.963008
v -22.460070 -4.837244 12.205662
v -2.972578 4.385928 10.415552
v -2.972579 -4.417450 10.415552
v -1.777074 10.225942 8.160570
v -2.972579 10.225942 8.121572
v -2.972578 10.225942 10.437822
v -1.777074 10.225942 10.019999
v -1.777083 -5.514248 -11.787655
v -2.972587 -5.514248 -11.826653
v -2.972586 6.031116 -11.826653
v -1.777082 6.031116 -11.787655
v -1.777083 -9.709073 -10.861765
v -1.291768 -9.709073 -3.035058
v -2.487272 -9.709073 -3.074055
v -2.972587 -9.709073 -10.900764
v -1.291767 6.031116 -3.035058
v -1.291767 -5.514248 -3.035058
v -2.261425 -5.514248 -3.074055
v -2.261425 6.031116 -3.074055
v -1.291766 10.225942 -3.035058
v -2.487270 10.225942 -3.074055
v -1.777075 -9.709073 10.019999
v -2.972579 -9.709073 10.437822
v -2.972580 -9.709073 8.121572
v -1.777076 -9.709073 8.160570
v -6.334259 10.225943 9.196727
v -6.334258 10.225943 11.512977
v -6.334260 -9.709072 11.512977
v -6.334260 -9.709072 9.235724
v -20.956097 9.601236 11.632525
v -21.345690 9.601236 9.389872
v -21.345692 -9.084364 9.389872
v -20.956099 -9.084364 11.632525
v -2.972585 10.225942 -10.900764
v -1.777081 10.225942 -10.861765
v -6.334259 4.385929 11.490706
v -14.721550 -9.709072 12.009214
v -14.721550 -3.422283 12.410693
v -14.721549 3.939153 12.410693
v -6.334259 -4.417449 11.490706
v -14.721550 10.225943 9.712462
v -14.721549 10.225943 12.009214
v -14.721551 -3.422283 10.144577
v -14.721550 3.939153 10.125076
v -6.334260 4.385929 9.196727
v -6.334260 -4.417449 9.235724
v -14.721551 -9.709072 9.731960
v -2.972579 4.385928 8.121572
v -2.972579 -4.417450 8.121572
v 0.000002 -7.736099 9.311309
v -0.000005 -7.736099 -9.311242
v -0.000004 7.736014 -9.311242
v 0.000003 7.736014 9.311309
v -1.936605 -7.736099 9.311310
v -1.936604 7.736014 9.311310
v -1.936611 7.736014 -9.311241
v -1.936612 -7.736099 -9.311241
vt 0.210425 0.500000
vt 0.210425 0.000000
vt 0.789575 0.000000
vt 0.789575 0.500000
vt 0.789575 1.000000
vt 0.210425 1.000000
vt 0.500000 0.000000
vt 0.500000 1.000000
vt 0.000000 1.000000
vt 0.000000 0.000000
vt 0.250000 0.000000
vt 0.250000 1.000000
vt 0.210425 0.750000
vt 0.789575 0.750000
vt 0.750000 0.000000
vt 0.750000 1.000000
vt 1.000000 0.000000
vt 1.000000 1.000000
vt 1.000000 0.500000
vt 0.000000 0.500000
vt 0.000000 0.750000
vt 1.000000 0.750000
vn 0.999400 -0.000000 0.034900
vn 1.000000 -0.000000 -0.000000
vn -0.950000 0.163100 0.266300
vn -0.950200 0.161700 0.266400
vn -0.950200 -0.161700 0.266400
vn -0.950000 -0.163100 0.266300
vn 0.200900 0.000000 0.979600
vn 0.199200 -0.000800 0.980000
vn 0.198800 0.001600 0.980000
vn 0.201600 0.001000 0.979500
vn 0.000000 1.000000 0.000000
vn 0.020200 -0.063300 -0.997800
vn 0.020200 -0.063200 -0.997800
vn 0.020200 0.063200 -0.997800
vn 0.020200 0.063300 -0.997800
vn 0.000000 -1.000000 -0.000000
vn 0.996000 0.005400 -0.089100
vn 0.999900 0.001400 -0.011100
vn 0.999900 -0.001400 -0.011100
vn 0.996000 -0.005400 -0.089100
vn -0.991500 0.007900 0.130000
vn -0.999700 0.022400 0.007800
vn -0.999600 -0.020400 0.019200
vn -0.992400 -0.014600 0.122400
vn -0.912100 0.320500 0.255700
vn -0.912100 -0.320500 0.255700
vn 0.210400 -0.001900 0.977600
vn 0.203100 -0.002200 0.979200
vn 0.202400 0.001300 0.979300
vn 0.211700 0.000000 0.977300
vn 0.020100 -0.126300 -0.991800
vn 0.020000 -0.126300 -0.991800
vn 0.020000 0.126300 -0.991800
vn 0.020100 0.126300 -0.991800
vn 0.995600 0.006400 -0.093700
vn 0.999900 -0.000000 -0.014900
vn 0.115900 -0.002200 0.993300
vn 0.103800 0.004300 0.994600
vn -0.018800 -0.059800 0.998000
vn -0.001000 -0.036800 0.999300
vn 0.019600 -0.016900 0.999700
vn -0.008500 -0.040000 0.999200
vn 0.023500 0.020700 0.999500
vn 0.110400 0.001700 0.993900
vn -0.050400 0.998700 -0.000000
vn -0.050900 0.998700 0.002000
vn -0.024000 0.012700 -0.999600
vn -0.025800 -0.021500 -0.999400
vn -0.104200 -0.006300 -0.994500
vn -0.112100 -0.000800 -0.993700
vn -0.053600 -0.998600 -0.000000
vn -0.053200 -0.998600 0.001900
vn 0.007900 0.028600 0.999600
vn 0.124800 -0.006100 0.992200
vn -0.997700 -0.000000 -0.068000
vn -0.998000 0.005500 -0.062900
vn -1.000000 0.000000 0.000000
vn -0.008500 0.040000 0.999200
vn -0.106900 0.993900 0.025300
vn -0.108100 0.993700 0.030300
vn 0.018200 0.031800 -0.999300
vn 0.005000 -0.039200 -0.999200
vn -0.102300 -0.994400 0.025100
vn -0.101700 -0.994400 0.028500
vn -0.018800 0.059800 0.998000
vn 0.995600 -0.006400 -0.093700
vn -0.999200 0.039100 0.003400
vn -0.997600 0.000000 -0.069800
vn -0.201200 -0.000000 -0.979500
vn -0.127900 0.008200 -0.991800
vn -0.010300 0.046100 -0.998900
vn 0.041100 0.091000 -0.995000
vn -0.992700 0.031100 0.116600
vn -0.998800 -0.041800 0.023600
vn -0.995000 -0.012700 0.099500
vn -0.011900 -0.029800 -0.999500
vn -0.116600 0.000000 -0.993200
vn -0.194400 0.000000 -0.980900
vn 0.013200 -0.060300 -0.998100
vn -0.995800 -0.018300 -0.090200
vn 0.000000 -0.000000 1.000000
vn -0.000000 0.000000 -1.000000
usemtl Material__1874
s 1
f 1/1/1 2/2/2 3/3/2 4/4/1
f 5/3/3 6/4/4 7/1/5 8/2/6
f 2/3/7 9/5/8 10/6/9 3/2/10
f 11/7/11 12/8/11 13/9/11 14/10/11
f 15/3/12 16/5/13 17/6/14 18/2/15
f 19/10/16 20/11/16 21/12/16 22/9/16
f 18/6/17 23/13/18 24/14/19 15/5/20
f 16/6/21 25/13/22 26/14/23 17/5/24
f 27/15/11 28/16/11 12/8/11 11/7/11
f 29/17/16 30/18/16 31/8/16 32/7/16
f 12/19/11 33/19/11 34/17/11 13/17/11
f 30/10/16 35/10/16 36/20/16 31/20/16
f 11/20/1 14/10/2 2/2/2 1/1/1
f 29/17/2 32/19/1 4/4/1 3/3/2
f 37/17/25 38/19/25 6/4/4 5/3/3
f 39/20/26 40/10/26 8/2/6 7/1/5
f 14/17/27 13/18/28 9/5/8 2/3/7
f 30/9/29 29/10/30 3/2/10 10/6/9
f 19/17/31 22/18/32 16/5/13 15/3/12
f 41/9/33 42/10/34 18/2/15 17/6/14
f 42/9/35 27/21/36 23/13/18 18/6/17
f 32/19/1 20/22/36 24/14/19 4/4/1
f 13/17/28 34/17/37 43/3/38 9/3/8
f 40/10/39 44/10/40 45/2/41 8/2/42
f 46/3/43 45/2/41 47/2/44 43/3/38
f 48/19/45 49/17/46 34/17/11 33/19/11
f 50/1/47 51/4/48 52/4/49 53/1/50
f 44/10/51 54/20/52 36/20/16 35/10/16
f 49/17/53 46/3/43 43/3/38 34/17/37
f 30/10/29 10/2/9 47/2/44 35/10/54
f 55/4/55 56/1/56 10/1/57 9/4/57
f 56/1/11 53/1/11 47/1/11 10/1/11
f 52/4/16 55/4/16 9/4/16 43/4/16
f 53/1/2 52/4/2 43/4/2 47/1/2
f 35/10/54 47/2/44 45/2/41 44/10/40
f 5/3/58 8/2/42 45/2/41 46/3/43
f 38/19/59 37/17/60 49/17/46 48/19/45
f 7/1/61 6/4/62 51/4/48 50/1/47
f 40/10/63 39/20/64 54/20/52 44/10/51
f 37/17/65 5/3/58 46/3/43 49/17/53
f 20/11/16 32/7/16 31/8/16 21/12/16
f 1/1/1 4/4/1 24/14/19 23/13/18
f 56/1/56 55/4/55 26/14/23 25/13/22
f 42/17/11 41/18/11 28/16/11 27/15/11
f 11/20/1 1/1/1 23/13/18 27/21/36
f 19/18/66 15/5/20 24/14/19 20/22/36
f 56/1/56 25/13/22 21/13/67 31/1/68
f 53/1/50 56/1/69 31/1/69 36/1/70
f 7/1/61 50/1/47 54/1/71 39/1/72
f 50/1/47 53/1/50 36/1/70 54/1/71
f 25/13/22 16/6/21 22/6/73 21/13/67
f 17/5/24 26/14/23 28/14/74 41/5/75
f 52/4/49 51/4/48 48/4/76 33/4/77
f 55/4/78 52/4/49 33/4/77 12/4/78
f 51/4/48 6/4/62 38/4/79 48/4/76
f 26/14/23 55/4/55 12/4/80 28/14/74
f 57/17/2 58/18/2 59/9/2 60/10/2
f 61/10/57 62/17/57 63/18/57 64/9/57
f 57/10/81 60/17/81 62/18/81 61/9/81
f 60/10/11 59/17/11 63/18/11 62/9/11
f 59/10/82 58/17/82 64/18/82 63/9/82
f 58/10/16 57/17/16 61/18/16 64/9/16
