# 3ds Max Wavefront OBJ Exporter v0.97b - (c)2007 guruware
# File Created: 07.01.2016 19:38:14

mtllib OBJ_SW.mtl

#
# object SW
#

v  56.347534 0.000000 -830.234985
v  95.717613 0.000000 -830.235046
v  56.347511 0.000000 -889.290100
v  95.717590 0.000000 -889.290161
v  56.347534 45.627922 -830.234985
v  95.717613 45.627922 -830.235046
v  56.347511 45.627922 -889.290100
v  95.717590 45.627922 -889.290161
v  56.347534 0.000000 -900.953796
v  95.717613 0.000000 -900.953857
v  56.347515 0.000000 -960.008911
v  95.717590 0.000000 -960.008972
v  56.347534 45.627922 -900.953796
v  95.717613 45.627922 -900.953857
v  56.347515 45.627922 -960.008911
v  95.717590 45.627922 -960.008972
v  56.347534 0.000000 -971.672607
v  95.717613 0.000000 -971.672668
v  56.347519 0.000000 -1030.727783
v  95.717598 0.000000 -1030.727783
v  56.347534 45.627922 -971.672607
v  95.717613 45.627922 -971.672668
v  56.347519 45.627922 -1030.727783
v  95.717598 45.627922 -1030.727783
v  56.347527 0.000000 -1042.391479
v  95.717606 0.000000 -1042.391479
v  56.347511 0.000000 -1101.446655
v  95.717590 0.000000 -1101.446655
v  56.347527 45.627922 -1042.391479
v  95.717606 45.627922 -1042.391479
v  56.347511 45.627922 -1101.446655
v  95.717590 45.627922 -1101.446655
v  56.347530 0.000000 -759.516174
v  95.717606 0.000000 -759.516235
v  56.347511 0.000000 -818.571289
v  95.717590 0.000000 -818.571350
v  56.347530 45.627922 -759.516174
v  95.717606 45.627922 -759.516235
v  56.347511 45.627922 -818.571289
v  95.717590 45.627922 -818.571350
v  177.704880 -0.492210 -1126.717896
v  138.334808 -0.492210 -1126.717896
v  177.704834 -0.492210 -733.017090
v  138.334747 -0.492210 -733.017151
v  177.704880 117.618027 -1126.717896
v  138.334808 117.618027 -1126.717896
v  177.704834 117.618027 -733.017090
v  138.334747 117.618027 -733.017151
# 48 vertices

vn 0.000000 -1.000000 -0.000000
vn 0.000000 1.000000 -0.000000
vn 0.000000 0.000000 1.000000
vn 1.000000 0.000000 -0.000000
vn -0.000000 0.000000 -1.000000
vn -1.000000 0.000000 0.000000
vn 0.000000 0.000000 -1.000000
vn -1.000000 0.000000 -0.000000
vn -0.000000 0.000000 1.000000
vn 1.000000 0.000000 0.000000
# 10 vertex normals

vt 0.633628 0.419259 0.000000
vt 0.329291 0.419259 0.000000
vt 0.329291 0.216368 0.000000
vt 0.633628 0.216368 0.000000
vt 0.002000 0.419259 0.000000
vt 0.002000 0.216368 0.000000
vt 0.306337 0.216368 0.000000
vt 0.306337 0.419259 0.000000
vt 0.531432 0.645096 0.000000
vt 0.328541 0.645096 0.000000
vt 0.328541 0.442205 0.000000
vt 0.531432 0.442205 0.000000
vt 0.306337 0.645105 0.000000
vt 0.002000 0.645105 0.000000
vt 0.002000 0.442214 0.000000
vt 0.306337 0.442214 0.000000
vt 0.520705 0.204891 0.000000
vt 0.317814 0.204891 0.000000
vt 0.317814 0.002000 0.000000
vt 0.520705 0.002000 0.000000
vt 0.306337 0.204891 0.000000
vt 0.002000 0.204891 0.000000
vt 0.002000 0.002000 0.000000
vt 0.306337 0.002000 0.000000
vt 0.736499 0.206526 0.000000
vt 0.533608 0.206526 0.000000
vt 0.533608 0.003635 0.000000
vt 0.736499 0.003635 0.000000
vt 0.599341 0.474362 0.000000
vt 0.721800 0.474362 0.000000
vt 0.721800 0.486608 0.000000
vt 0.599341 0.486608 0.000000
vt 0.668834 0.665768 0.000000
vt 0.668834 0.730779 0.000000
vt 0.018724 0.730779 0.000000
vt 0.018724 0.665768 0.000000
vt 0.975473 0.907820 0.000000
vt 0.975473 0.976879 0.000000
vt 0.768295 0.976879 0.000000
vt 0.768295 0.907820 0.000000
vt 0.756572 0.757055 0.000000
vt 0.756572 0.012156 0.000000
vt 0.980042 0.012156 0.000000
vt 0.980042 0.757055 0.000000
vt 0.976611 0.824099 0.000000
vt 0.976611 0.893413 0.000000
vt 0.768667 0.893413 0.000000
vt 0.768667 0.824099 0.000000
vt 0.014192 0.762132 0.000000
vt 0.759091 0.762132 0.000000
vt 0.759091 0.985601 0.000000
vt 0.014192 0.985601 0.000000
# 52 texture coords

g SW
usemtl MAT_SW
s 2
f -45/-52/-10 -47/-51/-10 -48/-50/-10 -46/-49/-10 
s 4
f -41/-48/-9 -42/-47/-9 -44/-46/-9 -43/-45/-9 
s 8
f -43/-44/-8 -44/-43/-8 -48/-42/-8 -47/-41/-8 
s 16
f -41/-40/-7 -43/-39/-7 -47/-38/-7 -45/-37/-7 
s 32
f -42/-36/-6 -41/-35/-6 -45/-34/-6 -46/-33/-6 
s 64
f -44/-32/-5 -42/-31/-5 -46/-30/-5 -48/-29/-5 
s 2
f -37/-52/-10 -39/-51/-10 -40/-50/-10 -38/-49/-10 
s 4
f -33/-48/-9 -34/-47/-9 -36/-46/-9 -35/-45/-9 
s 8
f -35/-44/-8 -36/-43/-8 -40/-42/-8 -39/-41/-8 
s 16
f -33/-40/-7 -35/-39/-7 -39/-38/-7 -37/-37/-7 
s 32
f -34/-36/-6 -33/-35/-6 -37/-34/-6 -38/-33/-6 
s 64
f -36/-32/-5 -34/-31/-5 -38/-30/-5 -40/-29/-5 
s 2
f -29/-52/-10 -31/-51/-10 -32/-50/-10 -30/-49/-10 
s 4
f -25/-48/-9 -26/-47/-9 -28/-46/-9 -27/-45/-9 
s 8
f -27/-44/-8 -28/-43/-8 -32/-42/-8 -31/-41/-8 
s 16
f -25/-40/-7 -27/-39/-7 -31/-38/-7 -29/-37/-7 
s 32
f -26/-36/-6 -25/-35/-6 -29/-34/-6 -30/-33/-6 
s 64
f -28/-32/-5 -26/-31/-5 -30/-30/-5 -32/-29/-5 
s 2
f -21/-52/-10 -23/-51/-10 -24/-50/-10 -22/-49/-10 
s 4
f -17/-48/-9 -18/-47/-9 -20/-46/-9 -19/-45/-9 
s 8
f -19/-44/-8 -20/-43/-8 -24/-42/-8 -23/-41/-8 
s 16
f -17/-40/-7 -19/-39/-7 -23/-38/-7 -21/-37/-7 
s 32
f -18/-36/-6 -17/-35/-6 -21/-34/-6 -22/-33/-6 
s 64
f -20/-32/-5 -18/-31/-5 -22/-30/-5 -24/-29/-5 
s 2
f -13/-52/-10 -15/-51/-10 -16/-50/-10 -14/-49/-10 
s 4
f -9/-48/-9 -10/-47/-9 -12/-46/-9 -11/-45/-9 
s 8
f -11/-28/-8 -12/-27/-8 -16/-26/-8 -15/-25/-8 
s 16
f -9/-40/-7 -11/-39/-7 -15/-38/-7 -13/-37/-7 
s 32
f -10/-36/-6 -9/-35/-6 -13/-34/-6 -14/-33/-6 
s 64
f -12/-32/-5 -10/-31/-5 -14/-30/-5 -16/-29/-5 
s 2
f -8/-24/-10 -6/-23/-10 -5/-22/-10 -7/-21/-10 
s 4
f -4/-20/-9 -3/-19/-9 -1/-18/-9 -2/-17/-9 
s 8
f -8/-16/-4 -7/-15/-4 -3/-14/-4 -4/-13/-4 
s 16
f -7/-12/-3 -5/-11/-3 -1/-10/-3 -3/-9/-3 
s 32
f -5/-8/-2 -6/-7/-2 -2/-6/-2 -1/-5/-2 
s 64
f -6/-4/-1 -8/-3/-1 -4/-2/-1 -2/-1/-1 
# 36 polygons

