# Blender v2.76 (sub 0) OBJ File: ''
# www.blender.org
mtllib OBJ_REP_IDU.mtl
o idu
v 3.098446 -33.531609 17.535320
v -1.884261 -33.353409 17.603233
v -2.341491 -33.353416 -17.826944
v 2.641218 -33.531616 -17.894735
v -2.310355 36.699444 -17.830933
v -1.853125 36.699451 17.599245
v 3.098446 36.699451 17.535309
v 2.641218 36.699444 -17.894747
v -2.310355 -31.269482 -17.830923
v 2.641218 -31.269478 -17.894735
v -13.823936 -32.926407 17.765818
v -3.209291 -31.269474 17.616718
v -3.666519 -31.269482 -17.813337
v -14.281163 -32.926414 -17.664240
v -1.853125 -31.269474 17.599257
v 3.098446 -31.269474 17.535318
v -3.666519 36.699444 -17.813349
v -2.310355 6.647634 -17.830929
v -3.666519 6.647634 -17.813345
v 2.641218 1.615949 -17.894741
v -2.310355 1.615949 -17.830927
v -2.310355 2.449727 -17.830927
v 2.641218 2.449727 -17.894741
v -3.209291 36.699451 17.616709
v -3.209291 6.647639 17.616713
v -13.388435 -5.760137 -17.678249
v -12.924721 -5.782086 17.751839
v -13.377451 -5.081956 17.758198
v -13.841165 -5.060006 -17.671890
v -1.853125 6.647639 17.599251
v 3.098446 6.647639 17.535313
v -3.209291 1.615955 17.616714
v -1.853125 1.615955 17.599251
v -1.853125 2.449733 17.599251
v -3.209291 2.449733 17.616714
v 2.641218 6.647634 -17.894743
v 3.098446 1.615955 17.535315
v 3.098446 2.449733 17.535315
v -1.853125 5.952796 17.599251
v 3.098446 5.952796 17.535313
v 2.641218 5.952790 -17.894741
v -3.666519 2.449727 -17.813343
v -3.666519 1.615949 -17.813343
v -2.310355 5.952790 -17.830929
v -3.666519 5.952790 -17.813345
v -3.209291 5.952796 17.616713
v -5.379912 27.817530 -15.749040
v -4.937699 27.817533 15.731985
v -3.146342 7.340323 15.706825
v -3.588540 7.340318 -15.774199
v -5.675565 27.424578 -15.379616
v -3.947861 7.675066 -15.403881
v -3.515922 7.675070 15.346746
v -5.243627 27.424582 15.371012
v -4.072806 7.297945 -15.767397
v -5.864179 27.775160 -15.742238
v -3.630593 7.297950 15.713627
v -5.421966 27.775164 15.738787
v -4.099503 7.661794 -15.401751
v -5.827207 27.411310 -15.377486
v -3.667564 7.661799 15.348877
v -5.395269 27.411314 15.373141
v -12.833651 -4.643891 -1.895054
v -4.852946 1.223762 -2.007156
v -4.850327 1.223762 -1.820651
v -12.831030 -4.643890 -1.708549
v -4.765887 3.763027 -1.838807
v -12.609992 -2.004200 -1.728624
v -12.612135 -2.004200 -1.881197
v -4.768030 3.763027 -1.991380
v -5.313886 2.413456 -1.526026
v -5.344523 1.891742 -1.522421
v -5.346763 1.891742 -1.681829
v -5.316128 2.413456 -1.685678
v -12.171006 -2.627841 -4.058383
v -5.350914 2.413455 -4.162118
v -5.381485 1.891742 -4.153753
v -12.201799 -3.149552 -4.065886
v -12.136284 -2.627840 -1.586460
v -12.167015 -3.149551 -1.589446
v -12.164772 -3.149551 -1.429794
v -12.134046 -2.627840 -1.427051
v -5.259318 1.891744 4.543509
v -5.228526 2.413457 4.550889
v -12.048841 -2.627837 4.638879
v -12.079412 -3.149549 4.647121
v -4.656605 3.895656 -1.823373
v -4.731030 2.869236 -1.822327
v -4.733650 2.869236 -2.008832
v -4.659225 3.895656 -2.009878
v -4.777652 2.262317 -2.008214
v -4.775032 2.262317 -1.821709
v -12.680538 -1.971997 -4.788848
v -4.699834 3.895656 -4.900950
v -4.774259 2.869235 -4.899904
v -12.754948 -2.998414 -4.787803
v -4.893556 1.223758 -4.898228
v -12.874260 -4.643891 -4.786126
v -12.798950 -3.605334 -4.787184
v -4.818261 2.262317 -4.899286
v -12.672150 -2.861515 -1.727751
v -12.674294 -2.861516 -1.880324
v -12.755720 -3.605333 -1.709607
v -12.758341 -3.605334 -1.896112
v -4.631377 2.869241 5.272188
v -4.556952 3.895658 5.271142
v -12.537655 -1.971995 5.383244
v -12.612065 -2.998412 5.384289
v -12.656067 -3.605332 5.384908
v -12.731377 -4.643888 5.385966
v -4.750674 1.223763 5.273864
v -4.675379 2.262319 5.272806
v -12.711719 -2.998413 -1.710226
v -12.714338 -2.998414 -1.896731
v -12.639929 -1.971997 -1.897776
v -12.637308 -1.971997 -1.711271
vt 0.697450 0.615847
vt 0.715783 0.615847
vt 0.302550 0.615847
vt 0.284217 0.615847
vt 1.000000 0.615847
vt 0.000000 0.615847
vt 0.697450 0.388696
vt 0.715783 0.388696
vt 0.000000 0.388696
vt 1.000000 0.388696
vt 0.302550 0.388696
vt 0.284217 0.388696
vt 0.697450 0.000000
vt 0.715783 0.000000
vt 0.715783 1.000000
vt 0.284217 1.000000
vt 0.302550 1.000000
vt 0.697450 1.000000
vt 1.000000 0.000000
vt 1.000000 1.000000
vt 0.000000 1.000000
vt 0.000000 0.000000
vt 0.284217 0.000000
vt 0.302550 0.000000
vt 0.094653 0.549136
vt 0.094653 0.539684
vt 0.022665 0.539684
vt 0.022665 0.549136
vt 0.176753 0.661643
vt 0.176753 0.614908
vt 0.177669 0.614908
vt 0.177669 0.661643
vt 0.342283 0.431199
vt 0.342199 0.440635
vt 0.280151 0.440082
vt 0.280235 0.430647
vt 0.975939 0.028333
vt 0.985480 0.028333
vt 0.985480 0.264034
vt 0.975939 0.264034
vt 0.890644 0.276242
vt 0.863587 0.276242
vt 0.863587 0.036013
vt 0.890644 0.036013
vt 0.895523 0.242092
vt 0.895523 0.023447
vt 0.926278 0.023447
vt 0.926278 0.242092
vt 0.262734 0.487500
vt 0.262633 0.498822
vt 0.139915 0.597898
vt 0.134326 0.588340
vt 0.208735 0.275778
vt 0.208735 0.253833
vt 0.203156 0.253827
vt 0.203152 0.275772
vt 0.114370 0.480690
vt 0.114370 0.492032
vt 0.262201 0.389578
vt 0.255619 0.380054
vt 0.865722 0.968879
vt 0.865722 0.642925
vt 0.978661 0.643019
vt 0.978589 0.968973
vt 0.212357 0.253833
vt 0.209496 0.253831
vt 0.209496 0.275776
vt 0.212357 0.275778
vt 0.941104 0.264034
vt 0.941104 0.028333
vt 0.337425 0.976799
vt 0.275008 0.973823
vt 0.275651 0.945529
vt 0.337698 0.946081
vt 0.977372 0.629210
vt 0.858253 0.629098
vt 0.858253 0.299997
vt 0.977372 0.300110
vt 0.095106 0.004999
vt 0.094653 0.033347
vt 0.114370 0.033347
vt 0.268693 0.010808
vt 0.229747 0.661643
vt 0.226764 0.661643
vt 0.226764 0.614908
vt 0.229747 0.614908
vt 0.266875 0.022418
vt 0.283869 0.022570
vt 0.263241 0.430496
vt 0.341675 0.499525
vt 0.279627 0.498973
vt 0.279728 0.487651
vt 0.341775 0.488203
vt 0.846751 0.938134
vt 0.365124 0.938134
vt 0.365123 0.529652
vt 0.846751 0.529652
vt 0.850649 0.985097
vt 0.537833 0.989158
vt 0.537701 0.978968
vt 0.850517 0.974907
vt 0.022665 0.957933
vt 0.094653 0.957933
vt 0.094653 0.480690
vt 0.094653 0.492032
vt 0.137116 0.661643
vt 0.137116 0.614908
vt 0.183389 0.614908
vt 0.183389 0.661643
vt 0.182290 0.661643
vt 0.182290 0.614908
vt 0.202640 0.253826
vt 0.202640 0.275770
vt 0.125443 0.966693
vt 0.258657 0.945377
vt 0.022665 0.002575
vt 0.022665 0.033347
vt 0.345916 0.023122
vt 0.114370 0.957933
vt 0.114370 0.549136
vt 0.022665 0.492032
vt 0.022665 0.480690
vt 0.365123 0.014260
vt 0.846751 0.014260
vt 0.846751 0.461258
vt 0.365123 0.461258
vt 0.846751 0.520207
vt 0.365123 0.520207
vt 0.365123 0.472591
vt 0.846751 0.472591
vt 0.114370 0.539684
vt 0.263157 0.439931
vn 0.111000 -0.993800 -0.002300
vn 0.092300 -0.995700 -0.001900
vn 0.092300 -0.995700 -0.002000
vn 0.092400 -0.995700 -0.001900
vn 0.104500 -0.993100 -0.053300
vn 0.104600 -0.993100 -0.053200
vn 0.104500 -0.993100 -0.053200
vn -0.092400 0.995700 0.001900
vn -0.105900 0.993200 -0.048900
vn -0.105900 0.993200 -0.048800
vn -0.111000 0.993800 0.002300
vn 0.092500 -0.995700 -0.001900
vn -0.092500 0.995700 0.001900
vn -0.167600 0.985800 0.003500
vn -0.168900 0.985600 0.003500
vn -0.096900 0.950200 0.296100
vn -0.096800 0.950200 0.296100
vn -0.590500 0.302500 0.748200
vn -0.590500 0.302600 0.748200
vn -0.590600 0.302500 0.748100
vn -0.590600 0.302600 0.748100
vn -0.443200 0.896400 0.009300
vn -0.443300 0.896300 0.009300
vn -0.614000 0.304600 -0.728200
vn -0.613900 0.304700 -0.728200
vn -0.614000 0.304700 -0.728200
vn -0.104400 0.950700 -0.292100
vn -0.104400 0.950700 -0.292000
vn 0.854200 0.519700 -0.017800
vn 0.105200 -0.994400 -0.002200
vn 0.105200 -0.994400 -0.001500
vn 0.925400 -0.378500 -0.019300
vn -0.014600 0.015500 -0.999800
vn -0.011600 -0.015700 -0.999800
vn -0.011600 -0.015500 -0.999800
vn -0.014600 0.015700 -0.999800
vn -0.925400 0.378400 0.019300
vn -0.925400 0.378500 0.019300
vn 0.892800 -0.450100 -0.018600
vn -0.013100 -0.000000 -0.999900
vn 0.892800 -0.450100 -0.018500
vn -0.892800 0.450100 0.018600
vn 0.105200 -0.994500 -0.002200
vn -0.105100 0.994500 0.002200
vn -0.105100 0.994500 0.001500
vn -0.892800 0.450200 0.018600
vn 0.012900 0.000000 0.999900
vn 0.999900 0.000000 -0.012900
vn -0.012900 -0.000000 -0.999900
vn -0.000000 1.000000 -0.000000
vn 0.000000 -1.000000 0.000000
vn -0.999900 0.000000 0.012900
vn -0.013000 0.000000 -0.999900
vn 0.108700 -0.994100 -0.001800
vn 0.108700 -0.994100 -0.001300
vn 0.013100 -0.000000 0.999900
vn -0.105700 0.994400 0.001800
vn -0.105700 0.994400 0.001700
vn -0.105800 0.994400 0.001200
vn -0.005200 -1.000000 0.000100
vn -0.005200 -1.000000 0.000000
vn -0.012900 -0.000100 -0.999900
vn -0.013200 -0.001600 -0.999900
vn -0.013200 -0.000700 -0.999900
vn -0.022400 0.999700 0.000100
vn -0.714900 0.699200 0.009200
vn -0.715000 0.699100 0.009200
vn -0.022400 0.999700 0.000300
vn 0.013400 0.001500 0.999900
vn 0.013200 0.000700 0.999900
vn 0.013400 0.001400 0.999900
vn 0.013000 0.002200 0.999900
vn -0.217000 -0.976200 0.002500
vn -0.217000 -0.976200 0.002200
vn -0.217100 -0.976100 0.002400
vn -0.217100 -0.976100 0.002200
vn -0.013100 -0.002200 -0.999900
vn -0.012900 -0.001500 -0.999900
vn 0.012900 0.000100 0.999900
vn -0.854200 -0.519700 0.017800
vn -0.854100 -0.519700 0.017800
vn -0.012600 0.999900 0.000300
vn -0.012600 0.999900 0.000200
vn -0.012400 -0.000000 -0.999900
vn 0.012600 -0.999900 -0.000300
vn 0.012600 -0.999900 -0.000200
vn 0.105900 -0.993200 0.048800
vn 0.105900 -0.993200 0.048900
vn -0.104600 0.993100 0.053200
vn -0.104500 0.993100 0.053200
vn 0.014500 -0.015500 0.999800
vn 0.014600 -0.015700 0.999800
vn 0.011600 0.015500 0.999800
vn 0.011500 0.015700 0.999800
vn 0.013000 0.000000 0.999900
vn 0.105200 -0.994500 -0.001500
vn -0.105200 0.994500 0.001500
vn -0.105200 0.994500 0.002200
usemtl Material__1813
s off
f 88/1/1 71/1/1 74/2/1 89/2/1
f 113/3/2 114/4/3 79/4/4 82/3/4
f 96/5/5 95/6/6 76/6/6 75/5/7
f 92/7/8 91/8/8 73/8/8 72/7/8
f 100/9/9 99/10/10 78/10/10 77/9/10
f 103/11/11 81/11/11 80/12/11 104/12/11
f 76/5/1 95/5/1 89/2/1 74/2/1
f 114/4/12 96/6/12 75/6/12 79/4/12
f 91/8/13 100/10/13 77/10/13 73/8/13
f 78/9/11 99/9/11 104/12/11 80/12/11
f 87/13/14 90/14/14 67/14/15 70/13/15
f 90/14/16 115/15/17 68/15/17 67/14/16
f 115/16/18 114/4/19 101/4/20 68/16/21
f 114/4/22 113/3/22 102/3/23 101/4/23
f 113/3/24 116/17/25 69/17/26 102/3/25
f 116/18/27 87/13/28 70/13/27 69/18/27
s 1
f 47/19/29 48/20/29 49/21/29 50/22/29
f 63/16/30 64/23/30 65/24/30 66/17/30
f 67/14/31 68/15/30 69/18/30 70/13/30
f 71/1/32 72/7/32 73/8/32 74/2/32
f 75/5/33 76/6/34 77/9/35 78/10/36
f 79/4/37 80/12/37 81/11/38 82/3/38
f 87/18/39 88/1/39 89/2/39 90/15/39
f 64/14/39 91/8/39 92/7/39 65/13/39
f 93/20/40 94/21/40 95/6/40 96/5/40
f 97/22/40 98/19/40 99/10/40 100/9/40
f 68/16/39 101/4/39 102/3/41 69/17/39
f 66/24/42 103/11/42 104/12/42 63/23/42
f 98/21/43 97/22/43 64/23/30 63/16/30
f 94/19/44 93/20/44 115/15/45 90/14/44
f 77/10/32 76/5/32 74/2/32 73/8/32
f 75/6/38 78/9/38 80/12/37 79/4/37
f 95/5/39 94/20/39 90/15/39 89/2/39
f 97/19/39 100/10/39 91/8/39 64/14/39
f 93/21/46 96/6/46 114/4/46 115/16/46
f 99/9/42 98/22/42 63/23/42 104/12/42
usemtl Material__1810
s off
f 30/25/47 39/26/47 40/27/47 31/28/47
f 36/29/48 31/30/48 40/31/48 41/32/48
f 36/33/49 41/34/49 44/35/49 18/36/49
f 44/37/50 45/38/50 46/39/50 39/40/50
f 19/41/51 18/42/51 30/43/51 25/44/51
f 30/45/52 18/46/52 44/47/52 39/48/52
f 42/49/53 43/50/53 26/51/53 29/52/53
f 43/53/54 32/54/55 27/55/54 26/56/54
f 32/57/56 35/58/56 28/59/56 27/60/56
f 35/61/57 42/62/58 29/63/58 28/64/59
s 1
f 1/65/60 2/66/60 3/67/61 4/68/60
f 5/37/50 6/40/50 7/69/50 8/70/50
f 4/71/62 3/72/63 9/73/64 10/74/62
f 11/75/65 12/76/66 13/77/67 14/78/68
f 2/79/69 15/80/70 12/81/71 11/82/72
f 4/83/48 10/84/48 16/85/48 1/86/48
f 17/87/53 5/88/49 18/36/49 19/89/53
f 20/90/49 21/91/49 22/92/49 23/93/49
f 24/94/52 17/95/52 19/96/52 25/97/52
f 26/98/73 27/99/74 28/100/75 29/101/76
f 7/102/47 6/103/47 30/25/47 31/28/47
f 32/57/47 33/104/47 34/105/47 35/58/47
f 8/106/48 7/107/48 31/30/48 36/29/48
f 37/108/48 20/109/48 23/110/48 38/111/48
f 11/112/60 14/113/61 3/67/61 2/66/60
f 17/38/50 24/39/50 6/40/50 5/37/50
f 3/72/63 14/114/77 13/115/78 9/73/64
f 1/116/79 16/117/47 15/80/70 2/79/69
f 8/118/49 36/33/49 18/36/49 5/88/49
f 42/49/53 22/92/49 21/91/49 43/50/53
f 24/119/47 25/120/47 30/25/47 6/103/47
f 38/121/47 34/105/47 33/104/47 37/122/47
f 10/74/62 9/73/64 21/91/49 20/90/49
f 44/35/49 41/34/49 23/93/49 22/92/49
f 13/123/67 12/124/66 32/125/52 43/126/52
f 46/127/52 45/128/52 42/129/52 35/130/52
f 12/81/71 15/80/70 33/104/47 32/57/47
f 39/26/47 46/131/47 35/58/47 34/105/47
f 16/85/48 10/84/48 20/109/48 37/108/48
f 41/32/48 40/31/48 38/111/48 23/110/48
f 45/132/53 44/35/49 22/92/49 42/49/53
f 9/73/64 13/115/78 43/50/53 21/91/49
f 40/27/47 39/26/47 34/105/47 38/121/47
f 15/80/70 16/117/47 37/122/47 33/104/47
usemtl Replace_This
f 51/22/80 52/19/80 53/20/80 54/21/80
usemtl wire_213154229
s off
f 56/22/80 55/19/80 59/19/80 60/22/80
f 55/19/80 57/20/80 61/20/80 59/19/80
f 57/20/80 58/21/80 62/21/80 61/20/80
f 58/21/80 56/22/80 60/22/81 62/21/81
f 60/22/56 59/19/56 52/19/56 51/22/56
f 59/19/82 61/20/83 53/20/82 52/19/82
f 61/20/84 62/21/84 54/21/84 53/20/84
f 62/21/85 60/22/85 51/22/85 54/21/86
f 105/5/87 108/6/88 85/6/87 84/5/88
f 109/9/89 112/10/90 83/10/90 86/9/89
f 88/1/1 105/6/1 84/6/1 71/1/1
f 85/5/12 108/5/12 113/3/12 82/3/12
f 83/9/13 112/9/13 92/7/13 72/7/13
f 103/11/11 109/10/11 86/10/11 81/11/11
s 1
f 47/22/40 50/19/40 55/20/40 56/21/40
f 50/22/85 49/19/86 57/20/85 55/21/85
f 49/22/47 48/19/47 58/20/47 57/21/47
f 48/22/82 47/19/83 56/20/82 58/21/83
f 83/10/91 84/5/92 85/6/93 86/9/94
f 105/5/95 106/20/95 107/21/95 108/6/95
f 109/9/56 110/22/56 111/19/56 112/10/56
f 111/19/96 110/20/43 66/17/30 65/24/30
f 107/21/97 106/22/98 87/13/98 116/18/98
f 84/6/32 83/9/32 72/7/32 71/1/32
f 86/10/38 85/5/38 82/3/38 81/11/38
f 106/21/39 105/6/39 88/1/39 87/18/39
f 112/9/39 111/22/39 65/13/39 92/7/39
f 108/5/46 107/20/46 116/17/46 113/3/46
f 110/19/42 109/10/42 103/11/42 66/24/42
