# Blender v2.76 (sub 0) OBJ File: ''
# www.blender.org
mtllib chairsw.mtl
o Chair_SW_D
v -3.029874 1.145661 -0.661316
v -3.029622 1.062166 -1.134766
v -23.008732 1.001870 -1.134766
v -23.008984 1.085365 -0.661316
v -3.028897 0.821765 -1.551025
v -23.008007 0.761469 -1.551025
v -3.027786 0.453573 -1.860046
v -23.006895 0.393277 -1.860047
v -3.026422 0.001869 -2.024414
v -23.005531 -0.058427 -2.024415
v -3.024972 -0.478827 -2.024414
v -23.004082 -0.539123 -2.024415
v -3.023608 -0.930531 -1.860046
v -23.002718 -0.990827 -1.860047
v -3.022497 -1.298724 -1.551025
v -23.001608 -1.359020 -1.551026
v -3.021772 -1.539125 -1.134766
v -23.000881 -1.599422 -1.134767
v -3.021520 -1.622621 -0.661316
v -23.000629 -1.682917 -0.661317
v -3.021772 -1.539126 -0.187927
v -23.000881 -1.599422 -0.187928
v -3.022497 -1.298725 0.228333
v -23.001608 -1.359021 0.228332
v -3.023608 -0.930531 0.537231
v -23.002718 -0.990827 0.537230
v -3.024972 -0.478827 0.701782
v -23.004082 -0.539124 0.701781
v -3.026422 0.001868 0.701782
v -23.005531 -0.058428 0.701782
v -3.027786 0.453572 0.537231
v -23.006895 0.393276 0.537231
v -3.028897 0.821765 0.228333
v -23.008007 0.761469 0.228333
v -3.029622 1.062166 -0.187927
v -23.008732 1.001870 -0.187927
v -0.293371 8.040655 -0.661315
v -0.291865 7.541848 -3.490111
v -0.287532 6.105667 -5.977721
v -0.280891 3.905268 -7.824158
v -0.272745 1.206078 -8.806519
v -0.264076 -1.666407 -8.806519
v -0.255930 -4.365583 -7.824159
v -0.249289 -6.565982 -5.977723
v -0.244954 -8.002180 -3.490113
v -0.243449 -8.500973 -0.661317
v -0.244953 -8.002180 2.167479
v -0.249287 -6.565984 4.655028
v -0.255928 -4.365585 6.501342
v -0.264074 -1.666410 7.483887
v -0.272743 1.206075 7.483887
v -0.280889 3.905266 6.501343
v -0.287530 6.105666 4.655030
v -0.291864 7.541847 2.167481
v -21.527845 -0.531356 -8.474671
v -23.863533 -0.538405 -8.474671
v -23.875275 3.352278 -7.432068
v -21.539587 3.359327 -7.432068
v -26.199324 -0.545454 -8.474671
v -26.211065 3.345229 -7.432068
v -26.554022 -0.546525 -7.998962
v -26.554020 -0.546526 -2.958497
v -26.557438 0.586068 -2.654907
v -26.565046 3.106351 -7.020264
v -23.863531 -0.538406 -2.958497
v -23.866949 0.594188 -2.654907
v -21.173145 -0.530286 -2.958497
v -21.176563 0.602307 -2.654907
v -21.173147 -0.530286 -7.998962
v -21.184172 3.122591 -7.020264
v -23.883871 6.200562 -4.583861
v -21.548183 6.207612 -4.583861
v -26.219662 6.193513 -4.583861
v -26.559940 1.415257 -1.825806
v -26.573116 5.780534 -4.346069
v -23.869452 1.423377 -1.825806
v -21.179066 1.431497 -1.825806
v -21.192242 5.796773 -4.346068
v -23.887014 7.243052 -0.693054
v -21.551327 7.250102 -0.693053
v -26.222805 7.236003 -0.693054
v -26.560856 1.718662 -0.693054
v -26.576069 6.759334 -0.693054
v -23.870367 1.726782 -0.693054
v -21.179981 1.734901 -0.693054
v -21.195194 6.775573 -0.693054
v -23.883869 6.200562 3.197693
v -21.548182 6.207611 3.197694
v -26.219660 6.193512 3.197693
v -26.559940 1.415257 0.439514
v -26.573114 5.780533 2.959839
v -23.869452 1.423377 0.439514
v -21.179066 1.431496 0.439514
v -21.192240 5.796772 2.959839
v -23.875273 3.352276 6.045898
v -21.539585 3.359325 6.045898
v -26.211063 3.345227 6.045898
v -26.557438 0.586068 1.268738
v -26.565044 3.106350 5.634033
v -23.866949 0.594187 1.268738
v -21.176563 0.602307 1.268738
v -21.184170 3.122589 5.634033
v -23.863531 -0.538407 7.088439
v -21.527843 -0.531358 7.088439
v -26.199322 -0.545456 7.088439
v -26.554020 -0.546526 1.572204
v -26.554020 -0.546527 6.612792
v -23.863531 -0.538406 1.572204
v -21.173145 -0.530287 1.572204
v -21.173145 -0.530288 6.612792
v -23.851789 -4.429198 6.045897
v -21.516102 -4.422149 6.045897
v -26.187580 -4.436247 6.045897
v -26.550602 -1.679227 1.268737
v -26.542995 -4.199510 5.634032
v -23.860113 -1.671107 1.268737
v -21.169727 -1.662988 1.268737
v -21.162121 -4.183271 5.634032
v -23.843193 -7.277482 3.197692
v -21.507505 -7.270432 3.197692
v -26.178984 -7.284531 3.197692
v -26.548100 -2.508324 0.439513
v -26.534925 -6.873706 2.959838
v -23.857611 -2.500204 0.439513
v -21.167225 -2.492085 0.439513
v -21.154051 -6.857467 2.959838
v -23.840046 -8.319972 -0.693056
v -21.504358 -8.312923 -0.693056
v -26.175837 -8.327022 -0.693056
v -26.547184 -2.811820 -0.693055
v -26.531971 -7.852493 -0.693056
v -23.856695 -2.803700 -0.693055
v -21.166309 -2.795580 -0.693055
v -21.151096 -7.836254 -0.693056
v -23.843195 -7.277481 -4.583863
v -21.507507 -7.270432 -4.583863
v -26.178986 -7.284530 -4.583863
v -26.548100 -2.508324 -1.825807
v -26.534927 -6.873705 -4.346070
v -23.857611 -2.500204 -1.825807
v -21.167225 -2.492085 -1.825807
v -21.154053 -6.857466 -4.346070
v -23.851791 -4.429196 -7.432069
v -21.516104 -4.422147 -7.432069
v -26.187582 -4.436245 -7.432069
v -26.550602 -1.679227 -2.654908
v -26.542997 -4.199508 -7.020204
v -23.860113 -1.671107 -2.654908
v -21.169727 -1.662987 -2.654908
v -21.162123 -4.183269 -7.020204
vt 0.500000 1.000000
vt 0.329000 0.969800
vt 0.178600 0.883000
vt 0.067000 0.750000
vt 0.007600 0.586800
vt 0.007600 0.413200
vt 0.067000 0.250000
vt 0.178600 0.117000
vt 0.329000 0.030200
vt 0.500000 0.000000
vt 0.671000 0.030200
vt 0.821400 0.117000
vt 0.933000 0.250000
vt 0.992400 0.413200
vt 0.992400 0.586800
vt 0.933000 0.750000
vt 0.821400 0.883000
vt 0.671000 0.969800
vt 0.750000 0.000000
vt 0.805600 0.000000
vt 0.805600 1.000000
vt 0.750000 1.000000
vt 0.861100 0.000000
vt 0.861100 1.000000
vt 0.916700 0.000000
vt 0.916700 1.000000
vt 0.972200 0.000000
vt 0.972200 1.000000
vt 1.027800 0.000000
vt 1.027800 1.000000
vt 0.027800 0.000000
vt 0.083300 0.000000
vt 0.083300 1.000000
vt 0.027800 1.000000
vt 0.138900 0.000000
vt 0.138900 1.000000
vt 0.194400 0.000000
vt 0.194400 1.000000
vt 0.250000 0.000000
vt 0.250000 1.000000
vt 0.305600 0.000000
vt 0.305600 1.000000
vt 0.361100 0.000000
vt 0.361100 1.000000
vt 0.416700 0.000000
vt 0.416700 1.000000
vt 0.472200 0.000000
vt 0.472200 1.000000
vt 0.527800 0.000000
vt 0.527800 1.000000
vt 0.583300 0.000000
vt 0.583300 1.000000
vt 0.638900 0.000000
vt 0.638900 1.000000
vt 0.694400 0.000000
vt 0.694400 1.000000
vt 0.022000 0.000000
vt 0.166700 0.000000
vt 0.166700 0.083300
vt 0.022000 0.083300
vt 0.311400 0.000000
vt 0.311400 0.083300
vt 0.347700 0.000000
vt 0.500000 0.083300
vt 0.347700 0.083300
vt 0.666700 0.000000
vt 0.666700 0.083300
vt 0.833300 0.000000
vt 0.833300 0.083300
vt 0.985600 0.000000
vt 0.985600 0.083300
vt 0.166700 0.166700
vt 0.022000 0.166700
vt 0.311400 0.166700
vt 0.500000 0.166700
vt 0.347700 0.166700
vt 0.666700 0.166700
vt 0.833300 0.166700
vt 0.985600 0.166700
vt 0.166700 0.250000
vt 0.022000 0.250000
vt 0.311400 0.250000
vt 0.500000 0.250000
vt 0.347700 0.250000
vt 0.666700 0.250000
vt 0.833300 0.250000
vt 0.985600 0.250000
vt 0.166700 0.333300
vt 0.022000 0.333300
vt 0.311400 0.333300
vt 0.500000 0.333300
vt 0.347700 0.333300
vt 0.666700 0.333300
vt 0.833300 0.333300
vt 0.985600 0.333300
vt 0.166700 0.416700
vt 0.022000 0.416700
vt 0.311400 0.416700
vt 0.500000 0.416700
vt 0.347700 0.416700
vt 0.666700 0.416700
vt 0.833300 0.416700
vt 0.985600 0.416700
vt 0.166700 0.500000
vt 0.022000 0.500000
vt 0.311400 0.500000
vt 0.500000 0.500000
vt 0.347700 0.500000
vt 0.666700 0.500000
vt 0.833300 0.500000
vt 0.985600 0.500000
vt 0.166700 0.583300
vt 0.022000 0.583300
vt 0.311400 0.583300
vt 0.500000 0.583300
vt 0.347700 0.583300
vt 0.666700 0.583300
vt 0.833300 0.583300
vt 0.985600 0.583300
vt 0.166700 0.666700
vt 0.022000 0.666700
vt 0.311400 0.666700
vt 0.500000 0.666700
vt 0.347700 0.666700
vt 0.666700 0.666700
vt 0.833300 0.666700
vt 0.985600 0.666700
vt 0.166700 0.750000
vt 0.022000 0.750000
vt 0.311400 0.750000
vt 0.500000 0.750000
vt 0.347700 0.750000
vt 0.666700 0.750000
vt 0.833300 0.750000
vt 0.985600 0.750000
vt 0.166700 0.833300
vt 0.022000 0.833300
vt 0.311400 0.833300
vt 0.500000 0.833300
vt 0.347700 0.833300
vt 0.666700 0.833300
vt 0.833300 0.833300
vt 0.985600 0.833300
vt 0.166700 0.916700
vt 0.022000 0.916700
vt 0.311400 0.916700
vt 0.500000 0.916700
vt 0.347700 0.916700
vt 0.666700 0.916700
vt 0.833300 0.916700
vt 0.985600 0.916700
vt 0.166700 1.000000
vt 0.022000 1.000000
vt 0.311400 1.000000
vt 0.347700 1.000000
vt 0.666700 1.000000
vt 0.833300 1.000000
vt 0.985600 1.000000
vt 1.038300 0.096700
vt 1.038300 -0.013400
vt 1.038300 0.180000
vt 1.038300 0.070000
vt 1.038300 0.263400
vt 1.038300 0.153300
vt 1.038300 0.346700
vt 1.038300 0.236600
vt 1.038300 0.430000
vt 1.038300 0.320000
vt 1.038300 0.513400
vt 1.038300 0.403300
vt 1.038300 0.596700
vt 1.038300 0.486600
vt 1.038300 0.680000
vt 1.038300 0.570000
vt 1.038300 0.763400
vt 1.038300 0.653300
vt 1.038300 0.846700
vt 1.038300 0.736600
vt 1.038300 0.930000
vt 1.038300 0.820000
vt 1.038300 1.013400
vt 1.038300 0.903300
vn -0.003000 0.984800 -0.173700
vn -0.002600 0.866000 -0.500100
vn -0.001900 0.642900 -0.766000
vn -0.001000 0.341900 -0.939700
vn 0.000000 0.000000 -1.000000
vn 0.001000 -0.341900 -0.939700
vn 0.001900 -0.642900 -0.766000
vn 0.002600 -0.866000 -0.500100
vn 0.003000 -0.984800 -0.173700
vn 0.003000 -0.984800 0.173700
vn 0.002600 -0.866000 0.500100
vn 0.001900 -0.642700 0.766100
vn 0.001000 -0.342300 0.939600
vn -0.000000 -0.000000 1.000000
vn -0.001000 0.342300 0.939600
vn -0.001900 0.642700 0.766100
vn -0.002600 0.866000 0.500100
vn -0.003000 0.984800 0.173700
vn -0.929500 0.368900 0.000000
vn -0.929400 0.346500 -0.127100
vn -0.929200 0.281900 -0.238900
vn -0.928900 0.183000 -0.321900
vn -0.928500 0.061700 -0.366000
vn -0.928200 -0.067300 -0.366000
vn -0.927800 -0.188600 -0.321900
vn -0.927500 -0.287500 -0.238900
vn -0.927300 -0.352100 -0.127100
vn -0.927200 -0.374500 0.000000
vn -0.927300 -0.352100 0.127100
vn -0.927500 -0.287500 0.238900
vn -0.927800 -0.188700 0.321900
vn -0.928200 -0.067400 0.366000
vn -0.928500 0.061800 0.366000
vn -0.928900 0.183100 0.321900
vn -0.929200 0.281900 0.238900
vn -0.929400 0.346500 0.127100
vn 1.000000 0.003000 -0.000000
vn -1.000000 -0.003000 0.000000
vn -0.000800 0.258800 -0.965900
vn 0.000800 -0.258900 0.965900
vn -0.002100 0.707100 -0.707100
vn -0.002600 0.866000 -0.500000
vn 0.002100 -0.707100 0.707100
vn 0.002600 -0.866000 0.500000
vn -0.002900 0.965900 -0.258800
vn 0.003000 -1.000000 -0.000000
vn -0.002900 0.965900 0.258800
vn -0.002600 0.866000 0.500000
vn 0.002600 -0.866000 -0.500000
vn -0.002100 0.707100 0.707100
vn 0.002100 -0.707100 -0.707100
vn -0.000800 0.258800 0.965900
vn 0.000800 -0.258800 -0.965900
vn 0.000800 -0.258800 0.965900
vn -0.001500 0.500000 -0.866000
vn -0.003000 1.000000 -0.000000
vn 0.001500 -0.500000 -0.866000
vn -0.001500 0.500000 0.866000
vn -0.000800 0.258900 0.965900
vn 0.706000 0.355700 -0.612400
vn 0.707100 0.002100 -0.707100
vn -0.707100 -0.002100 -0.707100
vn -0.708200 0.351500 -0.612400
vn 0.705200 0.614500 -0.353600
vn -0.708900 0.610200 -0.353600
vn 0.705000 0.709200 -0.000000
vn -0.709200 0.705000 -0.000000
vn 0.705200 0.614500 0.353600
vn -0.708900 0.610200 0.353600
vn 0.706000 0.355700 0.612400
vn -0.708100 0.351500 0.612400
vn 0.707100 0.002100 0.707100
vn -0.707100 -0.002100 0.707100
vn 0.708100 -0.351500 0.612400
vn -0.706000 -0.355700 0.612400
vn 0.708900 -0.610300 0.353600
vn -0.705200 -0.614500 0.353600
vn 0.709200 -0.705000 -0.000000
vn -0.705000 -0.709200 -0.000000
vn 0.708900 -0.610200 -0.353600
vn -0.705200 -0.614500 -0.353600
vn 0.708100 -0.351500 -0.612400
vn -0.706000 -0.355700 -0.612400
usemtl wire_135006006
s off
f 1/1/1 2/2/1 3/2/1 4/1/1
f 2/2/2 5/3/2 6/3/2 3/2/2
f 5/3/3 7/4/3 8/4/3 6/3/3
f 7/4/4 9/5/4 10/5/4 8/4/4
f 9/5/5 11/6/5 12/6/5 10/5/5
f 11/6/6 13/7/6 14/7/6 12/6/6
f 13/7/7 15/8/7 16/8/7 14/7/7
f 15/8/8 17/9/8 18/9/8 16/8/8
f 17/9/9 19/10/9 20/10/9 18/9/9
f 19/10/10 21/11/10 22/11/10 20/10/10
f 21/11/11 23/12/11 24/12/11 22/11/11
f 23/12/12 25/13/12 26/13/12 24/12/12
f 25/13/13 27/14/13 28/14/13 26/13/13
f 27/14/14 29/15/14 30/15/14 28/14/14
f 29/15/15 31/16/15 32/16/15 30/15/15
f 31/16/16 33/17/16 34/17/16 32/16/16
f 33/17/17 35/18/17 36/18/17 34/17/17
f 35/18/18 1/1/18 4/1/18 36/18/18
s 1
f 37/19/19 38/20/20 2/21/20 1/22/19
f 38/20/20 39/23/21 5/24/21 2/21/20
f 39/23/21 40/25/22 7/26/22 5/24/21
f 40/25/22 41/27/23 9/28/23 7/26/22
f 41/27/23 42/29/24 11/30/24 9/28/23
f 42/31/24 43/32/25 13/33/25 11/34/24
f 43/32/25 44/35/26 15/36/26 13/33/25
f 44/35/26 45/37/27 17/38/27 15/36/26
f 45/37/27 46/39/28 19/40/28 17/38/27
f 46/39/28 47/41/29 21/42/29 19/40/28
f 47/41/29 48/43/30 23/44/30 21/42/29
f 48/43/30 49/45/31 25/46/31 23/44/30
f 49/45/31 50/47/32 27/48/32 25/46/31
f 50/47/32 51/49/33 29/50/33 27/48/32
f 51/49/33 52/51/34 31/52/34 29/50/33
f 52/51/34 53/53/35 33/54/35 31/52/34
f 53/53/35 54/55/36 35/56/36 33/54/35
f 54/55/36 37/19/19 1/22/19 35/56/36
f 53/17/37 52/16/37 51/15/37 37/1/37
f 51/15/37 50/14/37 49/13/37 47/11/37
f 49/13/37 48/12/37 47/11/37
f 47/11/37 46/10/37 45/9/37 43/7/37
f 45/9/37 44/8/37 43/7/37
f 43/7/37 42/6/37 41/5/37 39/3/37
f 41/5/37 40/4/37 39/3/37
f 47/11/37 43/7/37 39/3/37 51/15/37
f 39/3/37 38/2/37 37/1/37 51/15/37
f 54/18/37 53/17/37 37/1/37
f 3/2/38 6/3/38 8/4/38 36/18/38
f 8/4/38 10/5/38 12/6/38 16/8/38
f 12/6/38 14/7/38 16/8/38
f 16/8/38 18/9/38 20/10/38 24/12/38
f 20/10/38 22/11/38 24/12/38
f 24/12/38 26/13/38 28/14/38 32/16/38
f 28/14/38 30/15/38 32/16/38
f 16/8/38 24/12/38 32/16/38 8/4/38
f 32/16/38 34/17/38 36/18/38 8/4/38
f 4/1/38 3/2/38 36/18/38
usemtl wire_087225198
f 55/57/39 56/58/39 57/59/39 58/60/39
f 56/58/39 59/61/39 60/62/39 57/59/39
f 61/63/38 62/10/38 63/64/38 64/65/38
f 62/10/40 65/66/40 66/67/40 63/64/40
f 65/66/40 67/68/40 68/69/40 66/67/40
f 67/68/37 69/70/37 70/71/37 68/69/37
f 58/60/41 57/59/41 71/72/42 72/73/42
f 57/59/41 60/62/41 73/74/42 71/72/42
f 64/65/38 63/64/38 74/75/38 75/76/38
f 63/64/43 66/67/43 76/77/44 74/75/44
f 66/67/43 68/69/43 77/78/44 76/77/44
f 68/69/37 70/71/37 78/79/37 77/78/37
f 72/73/42 71/72/42 79/80/45 80/81/45
f 71/72/42 73/74/42 81/82/45 79/80/45
f 75/76/38 74/75/38 82/83/38 83/84/38
f 74/75/44 76/77/44 84/85/46 82/83/46
f 76/77/44 77/78/44 85/86/46 84/85/46
f 77/78/37 78/79/37 86/87/37 85/86/37
f 80/81/47 79/80/47 87/88/48 88/89/48
f 79/80/47 81/82/47 89/90/48 87/88/48
f 83/84/38 82/83/38 90/91/38 91/92/38
f 82/83/46 84/85/46 92/93/49 90/91/49
f 84/85/46 85/86/46 93/94/49 92/93/49
f 85/86/37 86/87/37 94/95/37 93/94/37
f 88/89/48 87/88/48 95/96/50 96/97/50
f 87/88/48 89/90/48 97/98/50 95/96/50
f 91/92/38 90/91/38 98/99/38 99/100/38
f 90/91/49 92/93/49 100/101/51 98/99/51
f 92/93/49 93/94/49 101/102/51 100/101/51
f 93/94/37 94/95/37 102/103/37 101/102/37
f 96/97/52 95/96/52 103/104/52 104/105/52
f 95/96/52 97/98/52 105/106/52 103/104/52
f 99/100/38 98/99/38 106/107/38 107/108/38
f 98/99/53 100/101/53 108/109/5 106/107/5
f 100/101/53 101/102/53 109/110/5 108/109/5
f 101/102/37 102/103/37 110/111/37 109/110/37
f 104/105/54 103/104/54 111/112/54 112/113/54
f 103/104/54 105/106/54 113/114/54 111/112/54
f 107/108/38 106/107/38 114/115/38 115/116/38
f 106/107/5 108/109/5 116/117/55 114/115/55
f 108/109/5 109/110/5 117/118/55 116/117/55
f 109/110/37 110/111/37 118/119/37 117/118/37
f 112/113/43 111/112/43 119/120/44 120/121/44
f 111/112/43 113/114/43 121/122/44 119/120/44
f 115/116/38 114/115/38 122/123/38 123/124/38
f 114/115/55 116/117/55 124/125/42 122/123/42
f 116/117/55 117/118/55 125/126/42 124/125/42
f 117/118/37 118/119/37 126/127/37 125/126/37
f 120/121/44 119/120/44 127/128/46 128/129/46
f 119/120/44 121/122/44 129/130/46 127/128/46
f 123/124/38 122/123/38 130/131/38 131/132/38
f 122/123/42 124/125/42 132/133/56 130/131/56
f 124/125/42 125/126/42 133/134/56 132/133/56
f 125/126/37 126/127/37 134/135/37 133/134/37
f 128/129/46 127/128/46 135/136/49 136/137/49
f 127/128/46 129/130/46 137/138/49 135/136/49
f 131/132/38 130/131/38 138/139/38 139/140/38
f 130/131/56 132/133/56 140/141/48 138/139/48
f 132/133/56 133/134/56 141/142/48 140/141/48
f 133/134/37 134/135/37 142/143/37 141/142/37
f 136/137/49 135/136/49 143/144/57 144/145/57
f 135/136/49 137/138/49 145/146/57 143/144/57
f 139/140/38 138/139/38 146/147/38 147/148/38
f 138/139/48 140/141/48 148/149/58 146/147/58
f 140/141/48 141/142/48 149/150/58 148/149/58
f 141/142/37 142/143/37 150/151/37 149/150/37
f 144/145/57 143/144/57 56/152/53 55/153/53
f 143/144/57 145/146/57 59/154/53 56/152/53
f 147/148/38 146/147/38 62/1/38 61/155/38
f 146/147/58 148/149/58 65/156/59 62/1/59
f 148/149/58 149/150/58 67/157/59 65/156/59
f 149/150/37 150/151/37 69/158/37 67/157/37
f 58/159/60 70/71/60 69/70/61 55/160/61
f 59/61/62 61/63/62 64/65/63 60/62/63
f 72/161/64 78/79/64 70/71/60 58/162/60
f 60/62/63 64/65/63 75/76/65 73/74/65
f 80/163/66 86/87/66 78/79/64 72/164/64
f 73/74/65 75/76/65 83/84/67 81/82/67
f 88/165/68 94/95/68 86/87/66 80/166/66
f 81/82/67 83/84/67 91/92/69 89/90/69
f 96/167/70 102/103/70 94/95/68 88/168/68
f 89/90/69 91/92/69 99/100/71 97/98/71
f 104/169/72 110/111/72 102/103/70 96/170/70
f 97/98/71 99/100/71 107/108/73 105/106/73
f 112/171/74 118/119/74 110/111/72 104/172/72
f 105/106/73 107/108/73 115/116/75 113/114/75
f 120/173/76 126/127/76 118/119/74 112/174/74
f 113/114/75 115/116/75 123/124/77 121/122/77
f 128/175/78 134/135/78 126/127/76 120/176/76
f 121/122/77 123/124/77 131/132/79 129/130/79
f 136/177/80 142/143/80 134/135/78 128/178/78
f 129/130/79 131/132/79 139/140/81 137/138/81
f 144/179/82 150/151/82 142/143/80 136/180/80
f 137/138/81 139/140/81 147/148/83 145/146/83
f 55/181/61 69/158/61 150/151/82 144/182/82
f 145/146/83 147/148/83 61/155/62 59/154/62
