# 3ds Max Wavefront OBJ Exporter v0.97b - (c)2007 guruware
# File Created: 07.01.2016 19:31:23

mtllib OBJ_PSVR.mtl

#
# object PSVR
#

v  805.008179 -1.946268 -888.311462
v  672.109070 -1.946268 -888.311462
v  805.008179 96.556229 -888.311462
v  672.109070 96.556229 -888.311462
v  672.110046 -1.944427 -895.378174
v  789.272095 -1.944427 -895.378174
v  789.272095 96.358749 -895.378174
v  672.109070 96.358749 -895.378174
v  805.008179 151.596039 -1045.791748
v  672.109070 151.596039 -1045.791748
v  672.110046 -1.943268 -1045.791748
v  672.109070 142.663239 -1045.791748
v  789.272095 142.663239 -1045.791748
v  789.272095 -1.943268 -1045.791748
v  805.008179 -1.946268 -1045.791748
v  510.415588 -1.946739 -888.311462
v  668.523132 -1.946742 -888.311462
v  510.413574 96.556229 -888.311462
v  668.523132 96.556229 -888.311462
v  668.516602 -1.944901 -895.378174
v  510.411316 -1.944901 -895.378174
v  510.411316 96.358749 -895.378174
v  668.516602 96.358749 -895.378174
v  510.413574 151.675873 -1045.791748
v  668.519470 151.675873 -1045.791748
v  668.516602 -1.943741 -1045.791748
v  668.516541 142.766495 -1045.791748
v  510.411316 142.766510 -1045.791748
v  510.411316 -1.943741 -1045.791748
v  374.315674 -1.946725 -888.311462
v  505.000153 -1.946724 -888.311462
v  374.315674 96.556229 -888.311462
v  504.993774 96.556229 -888.311462
v  504.992371 -1.944885 -895.378845
v  386.827271 -1.944885 -895.380554
v  386.827271 93.265251 -895.368835
v  504.992371 93.265244 -895.368835
v  374.315674 151.593628 -1045.776855
v  504.993774 151.593628 -1045.776855
v  504.992371 -1.946129 -1045.776855
v  504.992371 142.809052 -1045.776855
v  386.827271 142.809052 -1045.776855
v  386.827271 -1.946131 -1045.776855
v  374.315674 -1.949131 -1045.776855
# 44 vertices

vn 0.000000 -0.000000 1.000000
vn 0.000000 0.000000 1.000000
vn 0.000000 0.000000 -1.000000
vn 0.000000 0.944005 0.329932
vn 1.000000 0.000008 0.000001
vn 0.000000 -0.955737 -0.294222
vn -1.000000 0.000000 -0.000000
vn 1.000000 0.000000 -0.000000
vn 0.000000 -0.000000 -1.000000
vn -0.000000 0.943856 0.330359
vn 0.000000 0.943855 0.330359
vn -0.000000 0.943855 0.330359
vn -1.000000 -0.000000 0.000000
vn -0.000000 -0.955553 -0.294821
vn -0.000000 -0.000000 1.000000
vn -0.000000 0.000000 1.000000
vn 0.000006 0.000113 -1.000000
vn 0.000000 0.000105 -1.000000
vn 0.000008 0.000115 -1.000000
vn 0.000014 0.000123 -1.000000
vn -0.000000 0.943999 0.329947
vn 0.000000 0.943999 0.329947
vn -0.000000 -0.949799 -0.312860
vn 0.000132 -1.000000 -0.000008
vn 0.010501 0.943878 0.330127
vn -0.002756 0.000001 -0.999996
vn 0.000219 -1.000000 0.000000
vn -0.006707 0.943906 0.330146
vn -0.002757 -0.000000 -0.999996
vn 0.000197 -1.000000 0.000012
vn -0.000153 -1.000000 -0.000004
vn 0.000000 -1.000000 -0.000261
vn -0.000000 -1.000000 -0.000260
vn 0.000000 -1.000000 -0.000260
vn 0.000132 -1.000000 -0.000261
vn -0.000003 -1.000000 -0.000260
# 36 vertex normals

vt 0.578190 0.201870 0.000000
vt 0.409959 0.201870 0.000000
vt 0.409959 0.339574 0.000000
vt 0.578190 0.339574 0.000000
vt 0.412223 0.029697 0.000000
vt 0.569837 0.029697 0.000000
vt 0.569837 0.180589 0.000000
vt 0.412222 0.180589 0.000000
vt 0.597010 0.568043 0.000000
vt 0.597010 0.771275 0.000000
vt 0.577199 0.759452 0.000000
vt 0.577199 0.568047 0.000000
vt 0.429693 0.771275 0.000000
vt 0.429693 0.759452 0.000000
vt 0.594281 0.361393 0.000000
vt 0.427171 0.361393 0.000000
vt 0.427171 0.540280 0.000000
vt 0.594281 0.540280 0.000000
vt 0.791833 0.478919 0.000000
vt 0.617071 0.534826 0.000000
vt 0.617071 0.360233 0.000000
vt 0.791833 0.360231 0.000000
vt 0.444387 0.600285 0.000000
vt 0.561415 0.600285 0.000000
vt 0.561415 0.729951 0.000000
vt 0.444387 0.729951 0.000000
vt 0.657899 0.908853 0.000000
vt 0.657899 0.790165 0.000000
vt 0.483138 0.790166 0.000000
vt 0.483138 0.964759 0.000000
vt 0.622207 0.575981 0.000000
vt 0.622207 0.688367 0.000000
vt 0.796980 0.750754 1.000000
vt 0.796980 0.575981 1.000000
vt 0.205279 0.201870 0.000000
vt 0.205276 0.339574 0.000000
vt 0.405420 0.339574 0.000000
vt 0.405420 0.201870 0.000000
vt 0.407389 0.029696 0.000000
vt 0.407389 0.180589 0.000000
vt 0.194696 0.180589 0.000000
vt 0.194696 0.029696 0.000000
vt 0.226121 0.771381 0.000000
vt 0.226119 0.759588 0.000000
vt 0.425170 0.759588 0.000000
vt 0.425173 0.771381 0.000000
vt 0.422657 0.540280 0.000000
vt 0.422662 0.361393 0.000000
vt 0.223853 0.361393 0.000000
vt 0.223853 0.540280 0.000000
vt 0.450305 0.918265 0.000000
vt 0.450305 0.799576 0.000000
vt 0.275544 0.799578 0.000000
vt 0.275544 0.974296 0.000000
vt 0.245197 0.731295 0.000000
vt 0.245197 0.603158 0.000000
vt 0.400911 0.603158 0.000000
vt 0.400911 0.731295 0.000000
vt 0.032997 0.201870 0.000000
vt 0.032997 0.339574 0.000000
vt 0.198416 0.339574 0.000000
vt 0.198424 0.201870 0.000000
vt 0.187406 0.029696 0.000000
vt 0.187406 0.180209 0.000000
vt 0.028443 0.180209 0.000000
vt 0.028443 0.029696 0.000000
vt 0.054777 0.568039 0.000000
vt 0.070529 0.568043 0.000000
vt 0.070529 0.759645 0.000000
vt 0.054777 0.771272 0.000000
vt 0.219296 0.759645 0.000000
vt 0.219298 0.771272 0.000000
vt 0.052720 0.540263 0.000000
vt 0.217038 0.540263 0.000000
vt 0.217038 0.361393 0.000000
vt 0.052720 0.361393 0.000000
vt 0.057300 0.971994 0.000000
vt 0.232055 0.912176 0.000000
vt 0.232044 0.797223 0.000000
vt 0.057300 0.797221 0.000000
vt 0.093607 0.729514 0.000000
vt 0.093607 0.601664 0.000000
vt 0.209130 0.601664 0.000000
vt 0.209130 0.729514 0.000000
vt 0.627076 0.341934 0.000000
vt 0.627076 0.167161 0.000000
vt 0.801818 0.167163 0.000000
vt 0.801831 0.282117 0.000000
vt 0.877597 0.785981 0.000000
vt 0.877597 0.960754 0.000000
vt 0.702824 0.898106 0.000000
vt 0.702824 0.785984 0.000000
vt 0.813331 0.575882 0.000000
vt 0.988092 0.575880 0.000000
vt 0.988092 0.694569 0.000000
vt 0.813331 0.750600 0.000000
vt 0.947381 0.954876 0.000000
vt 0.947381 0.962084 0.000000
vt 0.947310 0.962084 0.000000
vt 0.947310 0.954876 0.000000
vt 0.429694 0.568047 0.000000
vt 0.425170 0.568046 0.000000
vt 0.944115 0.962084 0.000000
vt 0.944115 0.954876 0.000000
vt 0.944221 0.954876 0.000000
vt 0.944221 0.962084 0.000000
vt 0.219296 0.568043 0.000000
vt 0.226119 0.568046 0.000000
vt 0.941562 0.962084 0.000000
vt 0.941562 0.954538 0.000000
vt 0.941807 0.954876 0.000000
vt 0.941807 0.962084 0.000000
vt 0.949977 0.954538 0.000000
vt 0.949977 0.962084 0.000000
vt 0.949670 0.962084 0.000000
vt 0.949670 0.954876 0.000000
vt 0.947381 0.954538 0.000000
vt 0.944221 0.954538 0.000000
vt 0.947311 0.954538 0.000000
vt 0.944115 0.954538 0.000000
vt 3.650132 -0.406059 0.000000
# 121 texture coords

g PSVR
usemtl MAT_PSVR
s 8
f -42/-118/-35 -41/-119/-36 -43/-120/-36 -44/-121/-36 
s 32
f -37/-114/-34 -38/-115/-34 -39/-116/-34 -40/-117/-34 
s off
f -31/-110/-34 -32/-111/-34 -36/-112/-34 -30/-113/-34 
f -32/-111/-34 -33/-108/-34 -35/-109/-34 -36/-112/-34 
s 4
f -36/-104/-33 -35/-105/-33 -41/-106/-33 -42/-107/-33 
s off
f -40/-100/-32 -34/-101/-32 -33/-102/-32 -37/-103/-32 
f -33/-96/-31 -32/-97/-31 -38/-98/-31 -37/-99/-31 
f -32/-92/-30 -31/-93/-30 -39/-94/-30 -38/-95/-30 
s 64
f -30/-88/-29 -36/-89/-29 -42/-90/-29 -44/-91/-29 
s 8
f -28/-84/-36 -26/-85/-36 -27/-86/-35 -29/-87/-36 
s 32
f -24/-80/-34 -23/-81/-34 -22/-82/-34 -25/-83/-34 
s off
f -20/-76/-28 -18/-77/-28 -17/-78/-28 -21/-79/-28 
s 4
f -21/-72/-25 -27/-73/-25 -26/-74/-26 -20/-75/-27 
s off
f -18/-68/-24 -19/-69/-24 -25/-70/-24 -22/-71/-24 
f -18/-64/-23 -22/-65/-23 -23/-66/-23 -17/-67/-23 
s 8
f -14/-60/-22 -12/-61/-22 -13/-62/-21 -15/-63/-22 
s 32
f -10/-56/-17 -9/-57/-18 -8/-58/-19 -11/-59/-20 
s off
f -7/-52/-34 -3/-53/-34 -2/-54/-34 -1/-55/-34 
f -6/-50/-34 -4/-51/-34 -3/-53/-34 -7/-52/-34 
s 4
f -13/-46/-16 -12/-47/-16 -6/-48/-15 -7/-49/-16 
s off
f -5/-42/-30 -11/-43/-30 -8/-44/-30 -4/-45/-30 
f -4/-38/-14 -8/-39/-14 -9/-40/-14 -3/-41/-14 
f -9/-34/-29 -10/-35/-29 -2/-36/-29 -3/-37/-29 
s 64
f -15/-30/-30 -13/-31/-30 -7/-32/-30 -1/-33/-30 
s off
f -17/-26/-29 -23/-27/-29 -24/-28/-29 -16/-29/-29 
f -26/-85/-36 -28/-84/-36 -43/-120/-36 -41/-119/-36 
f -18/-77/-34 -20/-76/-34 -35/-109/-34 -33/-108/-34 
f -25/-22/-13 -19/-23/-13 -34/-24/-13 -40/-25/-13 
f -19/-20/-34 -18/-77/-34 -33/-108/-34 -34/-21/-34 
f -41/-106/-12 -35/-105/-12 -20/-75/-12 -26/-74/-12 
f -29/-87/-35 -27/-86/-35 -12/-61/-35 -14/-60/-35 
f -21/-79/-11 -17/-78/-11 -4/-51/-11 -6/-50/-11 
f -16/-16/-10 -24/-17/-10 -11/-18/-10 -5/-19/-10 
f -27/-73/-9 -21/-72/-9 -6/-48/-9 -12/-47/-9 
f -17/-78/-8 -16/-14/-8 -5/-15/-8 -4/-51/-8 
f -2/-10/-7 -10/-11/-7 -15/-12/-7 -1/-13/-7 
f -39/-6/-6 -31/-7/-6 -30/-8/-6 -44/-9/-6 
f -40/-25/-5 -39/-6/-5 -44/-9/-5 -43/-5/-5 
f -24/-17/-4 -25/-22/-4 -28/-3/-4 -29/-4/-4 
f -10/-11/-3 -11/-18/-3 -14/-2/-3 -15/-12/-3 
f -25/-22/-2 -40/-25/-2 -43/-5/-2 -28/-3/-2 
f -11/-1/-1 -24/-1/-1 -29/-1/-1 -14/-1/-1 
# 42 polygons

