# 3ds Max Wavefront OBJ Exporter v0.97b - (c)2007 guruware
# File Created: 26.01.2016 19:35:51

mtllib OBJ_PSVR_Linha.mtl

#
# object Box224
#

v  773.991699 34.881676 -1126.511108
v  432.565186 34.881676 -1126.511353
v  773.991699 34.881676 -1125.970337
v  432.565186 34.881676 -1125.970581
v  773.991699 37.529095 -1126.511108
v  432.565186 37.529095 -1126.511353
v  773.991699 37.529095 -1125.970337
v  432.565186 37.529095 -1125.970581
v  434.402710 34.881676 -1124.925415
v  434.402710 34.881676 -1170.644043
v  433.242859 34.881676 -1124.925415
v  433.242859 34.881676 -1170.644043
v  434.402710 37.529095 -1124.925415
v  434.402710 37.529095 -1170.644043
v  433.242859 37.529095 -1124.925415
v  433.242859 37.529095 -1170.644043
v  816.434204 34.881676 -1174.546753
v  482.928711 34.881676 -1174.546997
v  816.434204 34.881676 -1173.386963
v  482.928711 34.881676 -1173.387085
v  816.434204 37.529095 -1174.546753
v  482.928711 37.529095 -1174.546997
v  816.434204 37.529095 -1173.386963
v  482.928711 37.529095 -1173.387085
v  817.051147 34.881676 -1174.092285
v  817.051147 34.881676 -1055.629639
v  818.210999 34.881676 -1174.092285
v  818.210999 34.881676 -1055.629639
v  817.051147 37.529095 -1174.092285
v  817.051147 37.529095 -1055.629639
v  818.210999 37.529095 -1174.092285
v  818.210999 37.529095 -1055.629639
# 32 vertices

vn 0.000000 -1.000000 -0.000000
vn 0.000000 1.000000 -0.000000
vn 0.000001 0.000000 -1.000000
vn -1.000000 0.000000 -0.000001
vn -0.000001 0.000000 1.000000
vn 1.000000 0.000000 0.000001
vn 1.000000 0.000000 0.000000
vn -1.000000 0.000000 -0.000000
# 8 vertex normals

vt 1.000000 0.000000 0.000000
vt 1.000000 1.000000 0.000000
vt 0.000000 1.000000 0.000000
vt 0.000000 0.000000 0.000000
# 4 texture coords

g Box224
usemtl Material__513
s 2
f -32/-4/-8 -30/-3/-8 -29/-2/-8 -31/-1/-8 
s 4
f -28/-1/-7 -27/-4/-7 -25/-3/-7 -26/-2/-7 
s 8
f -32/-1/-6 -31/-4/-6 -27/-3/-6 -28/-2/-6 
s 16
f -31/-1/-5 -29/-4/-5 -25/-3/-5 -27/-2/-5 
s 32
f -29/-1/-4 -30/-4/-4 -26/-3/-4 -25/-2/-4 
s 64
f -30/-1/-3 -32/-4/-3 -28/-3/-3 -26/-2/-3 
s 2
f -24/-4/-8 -22/-3/-8 -21/-2/-8 -23/-1/-8 
s 4
f -20/-1/-7 -19/-4/-7 -17/-3/-7 -18/-2/-7 
s 8
f -24/-1/-2 -23/-4/-2 -19/-3/-2 -20/-2/-2 
s 16
f -23/-1/-6 -21/-4/-6 -17/-3/-6 -19/-2/-6 
s 32
f -21/-1/-1 -22/-4/-1 -18/-3/-1 -17/-2/-1 
s 64
f -22/-1/-4 -24/-4/-4 -20/-3/-4 -18/-2/-4 
s 2
f -16/-4/-8 -14/-3/-8 -13/-2/-8 -15/-1/-8 
s 4
f -12/-1/-7 -11/-4/-7 -9/-3/-7 -10/-2/-7 
s 8
f -16/-1/-6 -15/-4/-6 -11/-3/-6 -12/-2/-6 
s 16
f -15/-1/-5 -13/-4/-5 -9/-3/-5 -11/-2/-5 
s 32
f -13/-1/-4 -14/-4/-4 -10/-3/-4 -9/-2/-4 
s 64
f -14/-1/-3 -16/-4/-3 -12/-3/-3 -10/-2/-3 
s 2
f -8/-4/-8 -6/-3/-8 -5/-2/-8 -7/-1/-8 
s 4
f -4/-1/-7 -3/-4/-7 -1/-3/-7 -2/-2/-7 
s 8
f -8/-1/-1 -7/-4/-1 -3/-3/-1 -4/-2/-1 
s 16
f -7/-1/-4 -5/-4/-4 -1/-3/-4 -3/-2/-4 
s 32
f -5/-1/-2 -6/-4/-2 -2/-3/-2 -1/-2/-2 
s 64
f -6/-1/-6 -8/-4/-6 -4/-3/-6 -2/-2/-6 
# 24 polygons

