# Blender v2.76 (sub 0) OBJ File: ''
# www.blender.org
mtllib OBJ_REP_DoubleTV.mtl
o Doble_TV005
v -23.740267 2.394646 15.110257
v -3.630420 4.380267 15.110257
v -3.630421 4.380276 -16.237087
v -23.740267 2.394655 -16.237085
v -23.681452 -2.878440 -16.237087
v -3.532320 -4.415022 -16.237087
v -3.532320 -4.415013 15.110254
v -23.681454 -2.878431 15.110256
v -24.126003 2.512488 15.482548
v -3.275180 4.571274 15.482548
v -3.645668 4.534692 15.110257
v -23.755516 2.549071 15.110257
v -3.275182 4.571283 -16.609377
v -3.645669 4.534701 -16.237087
v -24.126003 2.512498 -16.609375
v -23.755516 2.549080 -16.237085
v -24.064466 -3.004858 -16.609377
v -3.172908 -4.598057 -16.609377
v -3.544120 -4.569748 -16.237087
v -23.693254 -3.033168 -16.237087
v -3.172907 -4.598048 15.482545
v -3.544120 -4.569740 15.110254
v -24.064466 -3.004850 15.482546
v -23.693253 -3.033159 15.110255
v -24.077311 2.019343 15.482548
v -24.077311 2.019353 -16.609375
v -3.226489 4.078138 -16.609377
v -3.226487 4.078129 15.482548
v 0.216558 3.672501 -4.023394
v 0.216555 3.672503 3.675864
v 0.297871 -3.618082 3.675864
v 0.297874 -3.618083 -4.023391
v -9.773743 3.561079 -4.023402
v -9.692428 -3.729506 -4.023399
v -9.692430 -3.729506 3.675855
v -9.773745 3.561079 3.675854
v -24.026785 -2.510749 -16.609377
v -24.026785 -2.510742 15.482547
v -3.135226 -4.103941 15.482545
v -3.135227 -4.103948 -16.609377
vt 0.000000 0.000000
vt 1.000000 0.000000
vt 1.000000 1.000000
vt 0.000000 1.000000
vn -0.098300 0.995200 0.000000
vn 0.000000 0.000000 -1.000000
vn -0.995200 -0.098300 0.000000
vn 0.000000 0.000000 1.000000
vn 0.995200 0.098300 0.000000
vn -0.076000 -0.997100 -0.000000
vn -0.997100 0.076000 -0.000000
vn 0.997100 -0.076000 0.000000
vn 0.098300 -0.995200 -0.000000
vn 0.999900 0.011200 0.000000
vn -0.999900 -0.011200 -0.000000
vn 0.011200 -0.999900 0.000000
vn -0.011200 0.999900 -0.000000
vn 0.076000 0.997100 -0.000000
usemtl wire_113135006
s off
f 9/1/1 10/2/1 11/2/1 12/1/1
f 10/2/1 13/3/1 14/3/1 11/2/1
f 13/3/1 15/4/1 16/4/1 14/3/1
f 15/4/1 9/1/1 12/1/1 16/4/1
f 12/1/2 11/2/2 2/2/2 1/1/2
f 11/2/3 14/3/3 3/3/3 2/2/3
f 14/3/4 16/4/4 4/4/4 3/3/4
f 16/4/5 12/1/5 1/1/5 4/4/5
f 17/1/6 18/2/6 19/2/6 20/1/6
f 18/2/6 21/3/6 22/3/6 19/2/6
f 21/3/6 23/4/6 24/4/6 22/3/6
f 23/4/6 17/1/6 20/1/6 24/4/6
f 20/1/4 19/2/4 6/2/4 5/1/4
f 19/2/7 22/3/7 7/3/7 6/2/7
f 22/3/2 24/4/2 8/4/2 7/3/2
f 24/4/8 20/1/8 5/1/8 8/4/8
s 1
f 25/2/9 26/3/9 27/4/9 28/1/9
f 25/1/4 28/2/4 10/3/4 9/4/4
f 28/1/5 27/2/5 13/3/5 10/4/5
f 27/1/2 26/2/2 15/3/2 13/4/2
f 26/1/3 25/2/3 9/3/3 15/4/3
f 29/2/10 30/3/10 31/4/10 32/1/10
f 33/1/11 34/2/11 35/3/11 36/4/11
f 29/1/2 32/2/2 34/3/2 33/4/2
f 32/1/12 31/2/12 35/3/12 34/4/12
f 31/1/4 30/2/4 36/3/4 35/4/4
f 30/1/13 29/2/13 33/3/13 36/4/13
f 37/2/14 38/3/14 39/4/14 40/1/14
f 37/1/2 40/2/2 18/3/2 17/4/2
f 40/1/8 39/2/8 21/3/8 18/4/8
f 39/1/4 38/2/4 23/3/4 21/4/4
f 38/1/7 37/2/7 17/3/7 23/4/7
usemtl Material__1808
f 1/1/1 2/2/1 3/3/1 4/4/1
f 5/1/6 6/2/6 7/3/6 8/4/6
