# 3ds Max Wavefront OBJ Exporter v0.97b - (c)2007 guruware
# File Created: 07.01.2016 19:34:34

mtllib OBJ_COD_2.mtl

#
# object COD_2
#

v  1048.027832 0.000000 -1075.394165
v  1087.397949 0.000000 -1075.394165
v  1048.027832 0.000000 -1114.764282
v  1087.397949 0.000000 -1114.764282
v  1048.027832 45.627922 -1075.394165
v  1087.397949 45.627922 -1075.394165
v  1048.027832 45.627922 -1114.764282
v  1087.397949 45.627922 -1114.764282
v  1048.027832 0.000000 -1034.841675
v  1087.397949 0.000000 -1034.841675
v  1048.027832 0.000000 -1074.211792
v  1087.397949 0.000000 -1074.211792
v  1048.027832 45.627922 -1034.841675
v  1087.397949 45.627922 -1034.841675
v  1048.027832 45.627922 -1074.211792
v  1087.397949 45.627922 -1074.211792
v  1048.068970 0.000000 -994.521301
v  1087.439087 0.000000 -994.521301
v  1048.068970 0.000000 -1033.891357
v  1087.439087 0.000000 -1033.891357
v  1048.068970 45.627922 -994.521301
v  1087.439087 45.627922 -994.521301
v  1048.068970 45.627922 -1033.891357
v  1087.439087 45.627922 -1033.891357
v  1048.068848 0.000000 -953.968933
v  1087.438965 0.000000 -953.968933
v  1048.068848 0.000000 -993.339050
v  1087.438965 0.000000 -993.339050
v  1048.068848 45.627922 -953.968933
v  1087.438965 45.627922 -953.968933
v  1048.068848 45.627922 -993.339050
v  1087.438965 45.627922 -993.339050
v  1048.027832 0.000000 -913.611389
v  1087.397827 0.000000 -913.611389
v  1048.027832 0.000000 -952.981506
v  1087.397827 0.000000 -952.981506
v  1048.027832 45.627922 -913.611389
v  1087.397827 45.627922 -913.611389
v  1048.027832 45.627922 -952.981506
v  1087.397827 45.627922 -952.981506
v  1048.027832 0.000000 -873.371399
v  1087.397827 0.000000 -873.371399
v  1048.027832 0.000000 -912.741516
v  1087.397827 0.000000 -912.741516
v  1048.027832 45.627922 -873.371399
v  1087.397827 45.627922 -873.371399
v  1048.027832 45.627922 -912.741516
v  1087.397827 45.627922 -912.741516
# 48 vertices

vn 0.000000 -1.000000 -0.000000
vn 0.000000 1.000000 -0.000000
vn 0.000000 0.000000 1.000000
vn 1.000000 0.000000 -0.000000
vn -0.000000 0.000000 -1.000000
vn -1.000000 0.000000 0.000000
# 6 vertex normals

vt 0.352219 0.021722 0.000000
vt 0.663121 0.021722 0.000000
vt 0.663121 0.332624 0.000000
vt 0.352219 0.332624 0.000000
vt 0.356047 0.665331 0.000000
vt 0.664916 0.665331 0.000000
vt 0.664916 0.974200 0.000000
vt 0.356047 0.974200 0.000000
vt 0.352210 0.021716 0.000000
vt 0.663112 0.021716 0.000000
vt 0.663112 0.332618 0.000000
vt 0.352210 0.332618 0.000000
vt 0.016623 0.670276 0.000000
vt 0.332474 0.670276 0.000000
vt 0.332474 0.986128 0.000000
vt 0.016623 0.986128 0.000000
vt 0.678186 0.340102 0.000000
vt 0.993503 0.340102 0.000000
vt 0.993503 0.655418 0.000000
vt 0.678186 0.655418 0.000000
vt 0.681142 0.663597 0.000000
vt 0.993490 0.663597 0.000000
vt 0.993490 0.975945 0.000000
vt 0.681142 0.975945 0.000000
vt 0.352220 0.021722 0.000000
vt 0.663122 0.021722 0.000000
vt 0.663122 0.332624 0.000000
vt 0.352220 0.332624 0.000000
vt 0.356128 0.665359 0.000000
vt 0.665097 0.665359 0.000000
vt 0.665097 0.974329 0.000000
vt 0.356128 0.974329 0.000000
vt 0.016972 0.670533 0.000000
vt 0.332823 0.670533 0.000000
vt 0.332823 0.986384 0.000000
vt 0.016972 0.986384 0.000000
vt 0.352211 0.021712 0.000000
vt 0.663112 0.021712 0.000000
vt 0.663112 0.332614 0.000000
vt 0.352211 0.332614 0.000000
vt 0.680376 0.663312 0.000000
vt 0.993385 0.663312 0.000000
vt 0.993385 0.976320 0.000000
vt 0.680376 0.976320 0.000000
vt 0.352180 0.021696 0.000000
vt 0.663082 0.021696 0.000000
vt 0.663082 0.332598 0.000000
vt 0.352180 0.332598 0.000000
vt 0.356245 0.665430 0.000000
vt 0.665214 0.665430 0.000000
vt 0.665214 0.974399 0.000000
vt 0.356245 0.974399 0.000000
vt 0.352217 0.021716 0.000000
vt 0.663119 0.021716 0.000000
vt 0.663119 0.332618 0.000000
vt 0.352217 0.332618 0.000000
vt 0.016450 0.670764 0.000000
vt 0.332302 0.670764 0.000000
vt 0.332302 0.986615 0.000000
vt 0.016450 0.986615 0.000000
vt 0.352212 0.021712 0.000000
vt 0.663114 0.021712 0.000000
vt 0.663114 0.332614 0.000000
vt 0.352212 0.332614 0.000000
vt 0.680624 0.663312 0.000000
vt 0.993632 0.663312 0.000000
vt 0.993632 0.976320 0.000000
vt 0.680624 0.976320 0.000000
vt 0.352217 0.021715 0.000000
vt 0.663119 0.021715 0.000000
vt 0.663119 0.332617 0.000000
vt 0.352217 0.332617 0.000000
vt 0.356373 0.665058 0.000000
vt 0.665342 0.665058 0.000000
vt 0.665342 0.974027 0.000000
vt 0.356373 0.974027 0.000000
vt 0.352205 0.021705 0.000000
vt 0.663107 0.021705 0.000000
vt 0.663107 0.332607 0.000000
vt 0.352205 0.332607 0.000000
vt 0.016610 0.670292 0.000000
vt 0.332461 0.670292 0.000000
vt 0.332461 0.986143 0.000000
vt 0.016610 0.986143 0.000000
vt 0.352213 0.021710 0.000000
vt 0.663115 0.021710 0.000000
vt 0.663115 0.332612 0.000000
vt 0.352213 0.332612 0.000000
vt 0.680741 0.663312 0.000000
vt 0.993749 0.663312 0.000000
vt 0.993749 0.976320 0.000000
vt 0.680741 0.976320 0.000000
vt 0.352214 0.021704 0.000000
vt 0.663116 0.021704 0.000000
vt 0.663116 0.332606 0.000000
vt 0.352214 0.332606 0.000000
vt 0.355918 0.665547 0.000000
vt 0.664887 0.665547 0.000000
vt 0.664887 0.974516 0.000000
vt 0.355918 0.974516 0.000000
vt 0.352209 0.021716 0.000000
vt 0.663111 0.021716 0.000000
vt 0.663111 0.332618 0.000000
vt 0.352209 0.332618 0.000000
vt 0.016888 0.670119 0.000000
vt 0.332739 0.670119 0.000000
vt 0.332739 0.985970 0.000000
vt 0.016888 0.985970 0.000000
vt 0.663113 0.021712 0.000000
vt 0.663113 0.332614 0.000000
vt 0.680501 0.663312 0.000000
vt 0.993510 0.663312 0.000000
vt 0.993510 0.976320 0.000000
vt 0.680501 0.976320 0.000000
vt 0.348650 0.339815 0.000000
vt 0.665145 0.339815 0.000000
vt 0.665145 0.656310 0.000000
vt 0.348650 0.656310 0.000000
vt 0.330629 0.340656 0.000000
vt 0.330629 0.657151 0.000000
vt 0.014134 0.657151 0.000000
vt 0.014134 0.340656 0.000000
vt 0.678578 0.016211 0.000000
vt 0.995073 0.016211 0.000000
vt 0.995073 0.332706 0.000000
vt 0.678578 0.332706 0.000000
vt 0.016088 0.670057 0.000000
vt 0.332583 0.670057 0.000000
vt 0.332583 0.986552 0.000000
vt 0.016088 0.986552 0.000000
vt 0.346578 0.016211 0.000000
vt 0.663073 0.016211 0.000000
vt 0.663073 0.332706 0.000000
vt 0.346578 0.332706 0.000000
vt 0.014578 0.016211 0.000000
vt 0.331073 0.016211 0.000000
vt 0.331073 0.332706 0.000000
vt 0.014578 0.332706 0.000000
# 138 texture coords

g COD_2
usemtl MAT_COD_2
s 2
f -48/-138/-6 -46/-137/-6 -45/-136/-6 -47/-135/-6 
s 4
f -44/-134/-5 -43/-133/-5 -41/-132/-5 -42/-131/-5 
s 8
f -48/-130/-4 -47/-129/-4 -43/-128/-4 -44/-127/-4 
s 16
f -47/-126/-3 -45/-125/-3 -41/-124/-3 -43/-123/-3 
s 32
f -45/-122/-2 -46/-121/-2 -42/-120/-2 -41/-119/-2 
s 64
f -46/-118/-1 -48/-117/-1 -44/-116/-1 -42/-115/-1 
s 2
f -40/-114/-6 -38/-113/-6 -37/-112/-6 -39/-111/-6 
s 4
f -36/-110/-5 -35/-109/-5 -33/-108/-5 -34/-107/-5 
s 8
f -40/-130/-4 -39/-129/-4 -35/-128/-4 -36/-127/-4 
s 16
f -39/-106/-3 -37/-105/-3 -33/-104/-3 -35/-103/-3 
s 32
f -37/-102/-2 -38/-101/-2 -34/-100/-2 -33/-99/-2 
s 64
f -38/-98/-1 -40/-97/-1 -36/-96/-1 -34/-95/-1 
s 2
f -32/-94/-6 -30/-93/-6 -29/-92/-6 -31/-91/-6 
s 4
f -28/-90/-5 -27/-89/-5 -25/-88/-5 -26/-87/-5 
s 8
f -32/-86/-4 -31/-85/-4 -27/-84/-4 -28/-83/-4 
s 16
f -31/-82/-3 -29/-81/-3 -25/-80/-3 -27/-79/-3 
s 32
f -29/-78/-2 -30/-77/-2 -26/-76/-2 -25/-75/-2 
s 64
f -30/-74/-1 -32/-73/-1 -28/-72/-1 -26/-71/-1 
s 2
f -24/-70/-6 -22/-69/-6 -21/-68/-6 -23/-67/-6 
s 4
f -20/-66/-5 -19/-65/-5 -17/-64/-5 -18/-63/-5 
s 8
f -24/-62/-4 -23/-61/-4 -19/-60/-4 -20/-59/-4 
s 16
f -23/-58/-3 -21/-57/-3 -17/-56/-3 -19/-55/-3 
s 32
f -21/-54/-2 -22/-53/-2 -18/-52/-2 -17/-51/-2 
s 64
f -22/-50/-1 -24/-49/-1 -20/-48/-1 -18/-47/-1 
s 2
f -16/-46/-6 -14/-45/-6 -13/-44/-6 -15/-43/-6 
s 4
f -12/-42/-5 -11/-41/-5 -9/-40/-5 -10/-39/-5 
s 8
f -16/-38/-4 -15/-37/-4 -11/-36/-4 -12/-35/-4 
s 16
f -15/-34/-3 -13/-33/-3 -9/-32/-3 -11/-31/-3 
s 32
f -13/-78/-2 -14/-30/-2 -10/-29/-2 -9/-75/-2 
s 64
f -14/-28/-1 -16/-27/-1 -12/-26/-1 -10/-25/-1 
s 2
f -8/-24/-6 -6/-23/-6 -5/-22/-6 -7/-21/-6 
s 4
f -4/-20/-5 -3/-19/-5 -1/-18/-5 -2/-17/-5 
s 8
f -8/-16/-4 -7/-15/-4 -3/-14/-4 -4/-13/-4 
s 16
f -7/-12/-3 -5/-11/-3 -1/-10/-3 -3/-9/-3 
s 32
f -5/-8/-2 -6/-7/-2 -2/-6/-2 -1/-5/-2 
s 64
f -6/-4/-1 -8/-3/-1 -4/-2/-1 -2/-1/-1 
# 36 polygons

