# 3ds Max Wavefront OBJ Exporter v0.97b - (c)2007 guruware
# File Created: 07.01.2016 19:30:23

mtllib OBJ_Mix.mtl

#
# object Mix_1
#

v  1085.903564 0.000000 -51.452583
v  1085.903564 0.000000 -90.822662
v  652.832764 0.000000 -51.452591
v  652.832764 0.000000 -90.822670
v  1085.903564 118.110237 -51.452583
v  1085.903564 118.110237 -90.822662
v  652.832764 118.110237 -51.452591
v  652.832764 118.110237 -90.822670
# 8 vertices

vn 0.000000 -1.000000 -0.000000
vn 0.000000 1.000000 -0.000000
vn 1.000000 0.000000 0.000000
vn 0.000000 0.000000 -1.000000
vn -1.000000 0.000000 -0.000000
vn -0.000000 0.000000 1.000000
# 6 vertex normals

vt 0.002000 0.704714 0.000000
vt 0.996113 0.704714 0.000000
vt 0.996113 0.795088 0.000000
vt 0.002000 0.795088 0.000000
vt 0.995310 0.902742 0.000000
vt 0.995310 0.993116 0.000000
vt 0.001198 0.993116 0.000000
vt 0.001198 0.902742 0.000000
vt 0.281507 0.579292 0.000000
vt 0.281507 0.669666 0.000000
vt 0.010386 0.669666 0.000000
vt 0.010386 0.579292 0.000000
vt 0.002000 0.290646 0.000000
vt 0.996113 0.290646 0.000000
vt 0.996113 0.561768 0.000000
vt 0.002000 0.561768 0.000000
vt 0.275518 0.807375 0.000000
vt 0.275518 0.897749 0.000000
vt 0.004396 0.897749 0.000000
vt 0.004396 0.807375 0.000000
vt 0.002000 0.002000 0.000000
vt 0.996113 0.002000 0.000000
vt 0.996113 0.273122 0.000000
vt 0.002000 0.273122 0.000000
# 24 texture coords

g Mix_1
usemtl MAT_Mix
s 2
f -8/-24/-6 -6/-23/-6 -5/-22/-6 -7/-21/-6 
s 6
f -4/-20/-5 -3/-19/-5 -1/-18/-5 -2/-17/-5 
s 8
f -8/-16/-4 -7/-15/-4 -3/-14/-4 -4/-13/-4 
s 16
f -7/-12/-3 -5/-11/-3 -1/-10/-3 -3/-9/-3 
s 32
f -5/-8/-2 -6/-7/-2 -2/-6/-2 -1/-5/-2 
s 64
f -6/-4/-1 -8/-3/-1 -4/-2/-1 -2/-1/-1 
# 6 polygons

